<svg id="Layer_2" data-name="Layer 2" xmlns="http://www.w3.org/2000/svg" xmlns:xlink="http://www.w3.org/1999/xlink" viewBox="0 0 244.56 273.06"><defs><style>.cls-1,.cls-4{fill:none;}.cls-2{fill:#000037;}.cls-3{fill:#fff;}.cls-3,.cls-4,.cls-5,.cls-6{stroke:#000;stroke-miterlimit:10;}.cls-5{fill:#138808;}.cls-6{fill:#f93;}.cls-7{isolation:isolate;}.cls-8{clip-path:url(#clip-path);}.cls-9{fill:navy;}</style><clipPath id="clip-path" transform="translate(0.03 -1.14)"><path class="cls-1" d="M237.05,58.85c.81,1.52,1.8,3.6,2.57,5.14-.71-1.52-1.47-3-2.27-4.54-27-50.84-92.93-69-147.19-40.56C144.42-9.54,210.32,8.61,237.35,59.45c.8,1.5,1.56,3,2.27,4.54h0a166.32,166.32,0,0,1,6.27,16.8,146.58,146.58,0,0,1,3.43,17.15,89.26,89.26,0,0,1,.76,12.77,127.29,127.29,0,0,1-1.23,16.67,135.94,135.94,0,0,1-3.62,16,111.68,111.68,0,0,1-6.1,15.62c-1,2.12-2.43,4.93-3.64,6.95-2,3.28-4.77,7.56-7,10.71-1.41,2-3.53,4.56-5.11,6.45-1.2,1.43-2.89,3.26-4.17,4.61A108.81,108.81,0,0,1,207,198.75c-3,2.31-5.58,4.05-5.6,4.06-2.32,1.54-4.72,3.12-8,4.94-1.06.59-4.3,2.38-7.75,3.95-4,1.8-6,2.55-9,3.69-1.56.58-5,1.68-6.89,2.22-2.66.75-3.87,1.09-8.15,2-1.46.32-3.42.66-4.89.9s-3.63.5-5.19.7c-2,.26-4.65.44-6.65.55s-4.45.18-6.35.14c-3-.07-7-.23-10-.5A112.66,112.66,0,0,1,113.71,219c-2.61-.64-6.06-1.58-8.62-2.4-2.34-.74-5.41-1.86-7.68-2.78a148,148,0,0,1-14.89-7.36,80.07,80.07,0,0,1-9.49-6.3A151.55,151.55,0,0,1,60,188.77a123.63,123.63,0,0,1-11.34-13.58c-1.57-2.21-3.56-5.23-4.92-7.57-1.66-2.86-3.72-6.75-5.14-9.73a146.51,146.51,0,0,1-6.27-16.79A114.43,114.43,0,0,1,28.88,124a111.08,111.08,0,0,1-.76-12.77,117.82,117.82,0,0,1,1.24-16.67,130.12,130.12,0,0,1,3.61-16c.79-2.67,2.07-6.16,3.08-8.75.82-2.1,2.07-4.83,3-6.87a113,113,0,0,1,7-12.47c1-1.58,2.45-3.67,3.58-5.19,1.48-2,3.47-4.61,5.11-6.45,4.12-4.62,4.12-4.62,7.28-7.74,2.35-2.31,5.13-4.65,6.31-5.64s4.07-3.26,5.71-4.43c2.71-1.91,4.07-2.87,8.08-5.31A111.28,111.28,0,0,1,95.48,8.9a109.27,109.27,0,0,1,16.9-5.66c3.11-.72,6.05-1.4,9.14-1.86,1.55-.23,3.63-.54,5.19-.71,2-.2,4.65-.46,6.65-.54,3.86-.15,9-.13,12.88.09,3.25.18,7.57.81,10.81,1.23a117.7,117.7,0,0,1,16.07,3.87c4.64,1.64,10.72,4.15,15.21,6.17,2.29,1,5.17,2.75,7.35,4a113.07,113.07,0,0,1,9.49,6.3c2.1,1.51,4.77,3.69,6.72,5.39a106.09,106.09,0,0,1,12.24,12.48c1.66,2.09,3.94,4.84,5.43,7.06C232,50.25,235.05,55.06,237.05,58.85Z"/></clipPath></defs><path class="cls-2" d="M223.48,38a12,12,0,0,1,12,12l.05,164.59a12,12,0,0,1-12,12L21,226.66h0a12,12,0,0,1-12-12L9,50.06a12,12,0,0,1,12-12L223.47,38h0m0-9h0L21,29.06a21,21,0,0,0-21,21L0,214.66a21,21,0,0,0,21,21l202.51-.06a21,21,0,0,0,21-21L244.48,50a21,21,0,0,0-21-21Z" transform="translate(0.03 -1.14)"/><path class="cls-3" d="M220.86,59.81a110.86,110.86,0,0,1-39.58,147.34q-2.57,1.56-5.23,3l-1.09.59a110.3,110.3,0,0,1-34.74,11.5h-.07a110.6,110.6,0,0,1-38-.79,110.42,110.42,0,0,1-35-13.25c-.17-.09-.33-.19-.49-.29q-3.93-2.32-7.68-5a110,110,0,0,1-29.32-31q-2-3.19-3.86-6.59a110.31,110.31,0,0,1-12.94-62.43c.11-1.24.24-2.47.39-3.7v0a110.85,110.85,0,0,1,44-75.68c2.64-2,5.38-3.8,8.23-5.55,1.67-1,3.39-2,5.13-3,2.54-1.37,5.11-2.64,7.71-3.79A109.72,109.72,0,0,1,92.43,6c1.06-.31,2.12-.6,3.19-.87l.8-.22a109.74,109.74,0,0,1,24-3.26,111.23,111.23,0,0,1,75.3,26.89,109.16,109.16,0,0,1,11.15,11.1A111.28,111.28,0,0,1,220.86,59.81Z" transform="translate(0.03 -1.14)"/><g id="H_Eclipes" data-name="H Eclipes"><path class="cls-4" d="M132.06,11.33c5.47,13.14-10,37.53-38.06,49.23S38.67,71.11,33.21,58A14.5,14.5,0,0,1,33,48.09a109.7,109.7,0,0,1,7-8.71h0A110.44,110.44,0,0,1,80.63,10.51C106.34,1.53,127-.8,132.06,11.33Z" transform="translate(0.03 -1.14)"/><path class="cls-4" d="M106.74,91.4c-38.33,17.78-77,15.77-86.41-4.48a23.06,23.06,0,0,1-2-10.69A111.56,111.56,0,0,1,40,39.38h0A132.19,132.19,0,0,1,72.75,18.08C111.1.3,147.06,3.23,156.44,23.48S145.09,73.63,106.74,91.4Z" transform="translate(0.03 -1.14)"/><path class="cls-4" d="M181.43,36c11.22,30.82-17.78,69.66-68.53,88.14-46.07,16.78-85.5,7.82-100.78-17A111,111,0,0,1,85,8.83c1.11-.4,2.22-.79,3.33-1.15C132.66-3.32,171.41,8.48,181.43,36Z" transform="translate(0.03 -1.14)"/><path class="cls-4" d="M206.88,40.53c14.24,45-13.85,95.26-79.41,119.13-41.26,15-79,12.92-105.93-1.56-1-2.31-2-4.67-2.86-7.09A110.95,110.95,0,0,1,206.88,40.53Z" transform="translate(0.03 -1.14)"/><path class="cls-4" d="M227.15,75.1c3.75,10.3,5.41,15.26,6,25.67-11.45,34.78-40.54,70.94-87.26,88C109.41,202,74.76,202.49,46,193A110,110,0,0,1,21.54,158.1c-1-2.31-2-4.67-2.86-7.09A110.93,110.93,0,1,1,227.15,75.1Z" transform="translate(0.03 -1.14)"/><path class="cls-4" d="M227.15,75.1a110.23,110.23,0,0,1,2.17,69.31c-14.13,28.08-39.54,51.3-76,64.58-23.3,8.48-46.08,11.07-67.24,8.69A110.66,110.66,0,0,1,21.54,158.1c-1-2.31-2-4.67-2.86-7.09A111.27,111.27,0,0,1,40,39.38h0A110.44,110.44,0,0,1,80.63,10.51C82.06,9.92,83.5,9.36,85,8.83c1.11-.4,2.22-.79,3.33-1.15A110.84,110.84,0,0,1,227.15,75.1Z" transform="translate(0.03 -1.14)"/><path class="cls-4" d="M104,15.94c2.18,6-8.44,16.55-23.22,21.93s-25.82,5.7-28-.28,5.33-16,20.11-21.37S101.85,10,104,15.94Z" transform="translate(0.03 -1.14)"/></g><g id="V_Eclipes" data-name="V Eclipes"><path class="cls-4" d="M112,124.48C91.17,84.08,79.75,43.84,78.23,11.22a110.92,110.92,0,0,1,97.82,198.93l-1.09.59c-15-14.22-29.79-32-43.34-52.65" transform="translate(0.03 -1.14)"/><path class="cls-4" d="M220.86,59.81a110.95,110.95,0,0,1-44.81,150.34l-1.09.59a111,111,0,0,1-107.9-2.53c-2.8-1.64-5.52-3.39-8.17-5.28a110,110,0,0,1-29.32-31q-2-3.19-3.86-6.59a110.58,110.58,0,0,1-13.22-46.81c5.45-37.26,35.63-82.21,69.88-94.8C119,7.12,169,11.26,206.91,39.67A111.28,111.28,0,0,1,220.86,59.81Z" transform="translate(0.03 -1.14)"/><path class="cls-4" d="M162.08,95" transform="translate(0.03 -1.14)"/><path class="cls-4" d="M182.29,126.09c11.63,20.56,19.86,41,24.42,59.64a110.34,110.34,0,0,1-30.66,24.42l-1.09.59a110.37,110.37,0,0,1-72.85,10.72,110.42,110.42,0,0,1-35-13.25c-2.8-1.64-5.52-3.39-8.17-5.28a110,110,0,0,1-29.32-31q-2-3.19-3.86-6.59a110.31,110.31,0,0,1-12.94-62.43,5.79,5.79,0,0,0,.39-3.7v0q.36-2.85.85-5.67c.08-.46.16-.93.26-1.39s.21-1.11.32-1.65.15-.79.25-1.2c.13-.61.27-1.22.42-1.84.06-.27.12-.55.19-.83q.23-1,.48-1.92c.08-.34.17-.68.27-1q.26-.93.51-1.83c.12-.42.24-.84.37-1.25.24-.81.5-1.62.76-2.42.31-1,.64-1.92,1-2.86s.7-1.93,1.07-2.88.75-1.92,1.15-2.86.79-1.84,1.19-2.75l.2-.41c.33-.73.67-1.46,1-2.17.12-.26.24-.51.37-.75.34-.73.71-1.44,1.08-2.15.06-.13.13-.26.2-.38.33-.65.68-1.29,1-1.93l.65-1.15c.26-.47.54-1,.82-1.42l.64-1.1c.33-.54.66-1.08,1-1.62s.78-1.25,1.19-1.87l1.17-1.76c.48-.7,1-1.39,1.45-2.08.06-.07.12-.17.19-.26.54-.74,1.08-1.48,1.64-2.22h0c.48-.64,1-1.26,1.45-1.88l.67-.84,1.21-1.46.58-.69c.43-.5.86-1,1.31-1.5.72-.82,1.44-1.62,2.19-2.41.59-.63,1.18-1.26,1.79-1.88l0,0c.67-.68,1.34-1.35,2-2l.18-.18c.5-.49,1-1,1.53-1.44l.67-.61.12-.11c.57-.52,1.14-1,1.73-1.54s1.45-1.25,2.2-1.86c1.48-1.24,3-2.42,4.57-3.58,2.64-2,5.38-3.8,8.23-5.55a102.67,102.67,0,0,1,17.45,6.65c25.89,12.43,54.42,37,78.91,70" transform="translate(0.03 -1.14)"/><path class="cls-4" d="M182.29,126.09" transform="translate(0.03 -1.14)"/><path class="cls-4" d="M181.94,125.48" transform="translate(0.03 -1.14)"/><path class="cls-4" d="M234.2,114.88a111.52,111.52,0,0,1-27.49,70.85,110.34,110.34,0,0,1-30.66,24.42l-1.09.59a110.37,110.37,0,0,1-72.85,10.72,110.42,110.42,0,0,1-35-13.25c-2.8-1.64-5.52-3.39-8.17-5.28a110,110,0,0,1-29.32-31q-2-3.19-3.86-6.59a110.31,110.31,0,0,1-12.94-62.43c.11-1.24.24-2.47.39-3.7v0q.36-2.85.85-5.67c.08-.46.16-.93.26-1.39s.21-1.11.32-1.65.15-.79.25-1.2c.13-.61.27-1.22.42-1.84.06-.27.12-.55.19-.83q.23-1,.48-1.92c.08-.34.17-.68.27-1q.26-.93.51-1.83c.12-.42.24-.84.37-1.25.24-.81.5-1.62.76-2.42.31-1,.64-1.92,1-2.86s.7-1.93,1.07-2.88.75-1.92,1.15-2.86.79-1.84,1.19-2.75l.2-.41c.33-.73.67-1.46,1-2.17.12-.26.24-.51.37-.75.34-.73.71-1.44,1.08-2.15.06-.13.13-.26.2-.38.33-.65.68-1.29,1-1.93l.65-1.15c.26-.47.54-1,.82-1.42l.64-1.1c.33-.54.66-1.08,1-1.62s.78-1.25,1.19-1.87l1.17-1.76c.48-.7,1-1.39,1.45-2.08.06-.07.12-.17.19-.26.54-.74,1.08-1.48,1.64-2.22h0c.48-.64,1-1.26,1.45-1.88l.67-.84,1.21-1.46.58-.69c.43-.5.86-1,1.31-1.5.72-.82,1.44-1.62,2.19-2.41.59-.63,1.18-1.26,1.79-1.88l0,0c.67-.68,1.34-1.35,2-2l.18-.18c.5-.49,1-1,1.53-1.44l.67-.61.12-.11c.57-.52,1.14-1,1.73-1.54s1.45-1.25,2.2-1.86c1.49-1.23,3-2.43,4.57-3.58a157,157,0,0,1,25.68,1.1c21.92,2.64,45.82,9.62,69.46,21.07C189.61,63.76,218.58,89.21,234.2,114.88Z" transform="translate(0.03 -1.14)"/><path class="cls-4" d="M73.07,132.6C58.13,85.51,65.74,37.23,92.43,6c1.06-.31,2.12-.6,3.19-.87l.8-.22a109.74,109.74,0,0,1,24-3.26,111.23,111.23,0,0,1,75.3,26.89,109.16,109.16,0,0,1,11.15,11.1,111.48,111.48,0,0,1,24.94,50,110.11,110.11,0,0,1,2.35,25.18,111.52,111.52,0,0,1-27.49,70.85,110.38,110.38,0,0,1-25.43,21.42q-2.57,1.56-5.23,3l-1.09.59a110.3,110.3,0,0,1-34.74,11.5,162.61,162.61,0,0,1-50.75-53.3" transform="translate(0.03 -1.14)"/><path class="cls-4" d="M220.86,59.81a110.86,110.86,0,0,1-39.58,147.34q-2.57,1.56-5.23,3l-1.09.59a110.37,110.37,0,0,1-72.85,10.72,110.42,110.42,0,0,1-35-13.25c-.17-.09-.33-.19-.49-.29-.64-1.22-1.25-2.44-1.86-3.67-39-78.78-22.57-166.37,36.61-195.64a91.3,91.3,0,0,1,19.14-6.93,111.23,111.23,0,0,1,75.3,26.89,109.16,109.16,0,0,1,11.15,11.1A111.28,111.28,0,0,1,220.86,59.81Z" transform="translate(0.03 -1.14)"/></g><path class="cls-2" d="M244.53,214.59a21,21,0,0,1-21,21l-67.3,0v22.81h34.93V274.2H53.55V258.43H88.48V235.64l-67.46,0a21,21,0,0,1-21-21l0-82.33H9l0,82.33a12,12,0,0,0,12,12l202.51-.06a12.05,12.05,0,0,0,12-12l0-82.26h9Z" transform="translate(0.03 -1.14)"/><path class="cls-5" d="M66.57,207.92q-3.94-2.34-7.68-5a109.62,109.62,0,0,1-11.57-9.49,123.79,123.79,0,0,0,14,3.56c1.08,2.43,2.22,4.84,3.41,7.25C65.32,205.48,65.93,206.7,66.57,207.92Z" transform="translate(0.03 -1.14)"/><path class="cls-5" d="M61.3,197a123.79,123.79,0,0,1-14-3.56,109.6,109.6,0,0,1-17.75-21.5q-2-3.19-3.86-6.59c-1.22-2.26-2.36-4.53-3.4-6.84a98.39,98.39,0,0,0,28.47,9.59A207.49,207.49,0,0,0,61.3,197Z" transform="translate(0.03 -1.14)"/><path class="cls-5" d="M130.6,215.46a142,142,0,0,1-42,2.48l-.13,0-1-.35c-.64-.22-1.29-.44-1.92-.67l-.35-.13c-.7-.25-1.4-.52-2.09-.79s-1.26-.49-1.89-.76l-1.5-.62c-.64-.27-1.27-.55-1.91-.84-2.34-1.05-4.65-2.19-6.91-3.4-.51-.27-1-.54-1.51-.83-.77-.42-1.53-.86-2.29-1.3-.17-.09-.33-.19-.49-.29-.64-1.22-1.25-2.44-1.86-3.67-1.19-2.41-2.33-4.82-3.41-7.25a145.82,145.82,0,0,0,49.77.71A156.92,156.92,0,0,0,130.6,215.46Z" transform="translate(0.03 -1.14)"/><path class="cls-5" d="M167.32,203.15q-6.7,3.18-14,5.84a161.6,161.6,0,0,1-22.71,6.47,156.92,156.92,0,0,1-19.53-17.75,180.73,180.73,0,0,0,34.86-9c2.16-.78,4.27-1.61,6.35-2.48Q159.7,195.27,167.32,203.15Z" transform="translate(0.03 -1.14)"/><path class="cls-5" d="M204.58,177.79a139.28,139.28,0,0,1-37.26,25.36q-7.59-7.86-15-16.91a145.94,145.94,0,0,0,45-29.27A215.43,215.43,0,0,1,204.58,177.79Z" transform="translate(0.03 -1.14)"/><path class="cls-5" d="M233.87,114.34a110.4,110.4,0,0,1-4.55,30.07,122.32,122.32,0,0,1-24.74,33.38A215.43,215.43,0,0,0,197.29,157a140.23,140.23,0,0,0,33-48.18Q232.16,111.57,233.87,114.34Z" transform="translate(0.03 -1.14)"/><path class="cls-5" d="M230.24,108.79a140.23,140.23,0,0,1-33,48.18,264.44,264.44,0,0,0-14.94-30.75c13.05-13,21.65-27.67,25.62-42.9A159.12,159.12,0,0,1,230.24,108.79Z" transform="translate(0.03 -1.14)"/><path class="cls-5" d="M233.19,100.73v0q-1.32,4-2.95,8A159.12,159.12,0,0,0,208,83.32a76.65,76.65,0,0,0-1.09-42.79A110.43,110.43,0,0,1,227.15,75.1c.12.32.23.63.34,1A110.61,110.61,0,0,1,233.19,100.73Z" transform="translate(0.03 -1.14)"/><path class="cls-5" d="M197.29,157a145.94,145.94,0,0,1-45,29.27,331.88,331.88,0,0,1-20.66-28.15c21-8.21,38-19.21,50.73-31.87A264.44,264.44,0,0,1,197.29,157Z" transform="translate(0.03 -1.14)"/><path class="cls-5" d="M152.28,186.24c-2.08.87-4.19,1.7-6.35,2.48a180.73,180.73,0,0,1-34.86,9,168.82,168.82,0,0,1-21.6-28.77,171.37,171.37,0,0,0,38-9.28c1.4-.51,2.79-1,4.15-1.57A331.88,331.88,0,0,0,152.28,186.24Z" transform="translate(0.03 -1.14)"/><path class="cls-5" d="M111.07,197.71A145.82,145.82,0,0,1,61.3,197a207.49,207.49,0,0,1-10.52-28.9,130.27,130.27,0,0,0,38.69.84A168.82,168.82,0,0,0,111.07,197.71Z" transform="translate(0.03 -1.14)"/><path class="cls-5" d="M233.87,114.34q-1.71-2.78-3.63-5.55,1.63-4,2.95-8A108.64,108.64,0,0,1,233.87,114.34Z" transform="translate(0.03 -1.14)"/><path class="cls-1" d="M182.35,126.22c-12.73,12.66-29.7,23.66-50.73,31.87-5.63-8.56-11-17.59-16.15-27.05-1.18-2.19-2.34-4.38-3.46-6.57l.89-.32c20-7.29,36.68-17.76,48.79-29.65q2.46,3.33,4.88,6.76C172.38,109.53,177.65,117.89,182.35,126.22Z" transform="translate(0.03 -1.14)"/><g id="ORANG"><path class="cls-6" d="M44,129.62C31.16,126,20.85,119.29,14.12,110.1a124.83,124.83,0,0,1,7.2-21.29c4.19,7.12,12.34,11.69,22.89,13.63A170.85,170.85,0,0,0,44,129.62Z" transform="translate(0.03 -1.14)"/><path class="cls-6" d="M21.32,88.8h0a124.83,124.83,0,0,0-7.2,21.29c-.59-.8-1.14-1.61-1.67-2.45h0c.07-1.58.18-3.16.32-4.73a5.78,5.78,0,0,0,.39-3.7h0q.36-2.85.85-5.67c.08-.47.16-.93.26-1.39s.21-1.11.32-1.66c.07-.39.15-.78.25-1.19.13-.61.27-1.23.42-1.84.06-.27.12-.55.19-.83q.23-1,.48-1.92c.08-.34.17-.69.27-1l.51-1.84c.12-.41.24-.83.37-1.24.24-.82.5-1.63.76-2.43.07-.22.14-.43.22-.64l.11-.3a.78.78,0,0,0,0-.14l.06-.12a22.78,22.78,0,0,0,2,10A21,21,0,0,0,21.32,88.8Z" transform="translate(0.03 -1.14)"/><path class="cls-6" d="M36.29,62.37a148.54,148.54,0,0,0-15,26.43,21,21,0,0,1-1-1.88,22.78,22.78,0,0,1-2-10v-.1q.25-.78.54-1.56c.34-1,.7-1.92,1.07-2.87s.75-1.92,1.15-2.86.79-1.84,1.19-2.75l.2-.41c.33-.73.67-1.46,1-2.17.12-.26.24-.51.37-.76.34-.72.71-1.43,1.08-2.14.06-.13.13-.26.2-.38.33-.65.68-1.29,1-1.94l.65-1.14c.26-.47.54-1,.82-1.42s.43-.74.64-1.1c.33-.54.66-1.08,1-1.62s.78-1.25,1.19-1.87l1.17-1.76.73-1.06,0-.06v0l.2-.29.11-.16h0s0,0,0,0v0s0,0,0,0v0h0a0,0,0,0,0,0,0h0l0,0,.09-.13s0,0,0,0l0,0,0,0A14.47,14.47,0,0,0,33.21,58,12.85,12.85,0,0,0,36.29,62.37Z" transform="translate(0.03 -1.14)"/><path class="cls-6" d="M51.35,68.28a144.78,144.78,0,0,0-7.14,34.16c-10.55-1.94-18.7-6.51-22.89-13.63h0a148.54,148.54,0,0,1,15-26.43C39.63,65.55,44.87,67.53,51.35,68.28Z" transform="translate(0.03 -1.14)"/><path class="cls-6" d="M150.73,15.76A126.24,126.24,0,0,0,132.86,14a13.38,13.38,0,0,0-.8-2.7,11.66,11.66,0,0,0-3.26-4.49C137.91,8,145.48,11,150.73,15.76Z" transform="translate(0.03 -1.14)"/><path class="cls-6" d="M73.08,132.6a90.67,90.67,0,0,1-29.08-3,170.85,170.85,0,0,1,.21-27.18,77.92,77.92,0,0,0,22.41.53A160.67,160.67,0,0,0,73.08,132.6Z" transform="translate(0.03 -1.14)"/><path class="cls-6" d="M112,124.46h0a136.39,136.39,0,0,1-38.93,8.13A160.67,160.67,0,0,1,66.62,103a124.93,124.93,0,0,0,31.8-8Q104.35,109.59,112,124.46Z" transform="translate(0.03 -1.14)"/><path class="cls-6" d="M161.69,94.5c-12.11,11.89-28.76,22.36-48.79,29.65-.3.11-.59.22-.89.31Q104.35,109.63,98.42,95q4.15-1.62,8.32-3.55a121.51,121.51,0,0,0,33.58-22.5A293,293,0,0,1,161.69,94.5Z" transform="translate(0.03 -1.14)"/><path class="cls-6" d="M181.94,62.69c-3.14,10.92-10.11,21.86-20.25,31.81a293,293,0,0,0-21.37-25.6c7.17-7,12.42-14.33,15.43-21.51A238.66,238.66,0,0,1,181.94,62.69Z" transform="translate(0.03 -1.14)"/><path class="cls-6" d="M181.94,62.69a238.66,238.66,0,0,0-26.19-15.3c3.57-8.53,4-16.81.69-23.91a23.81,23.81,0,0,0-5.71-7.72,129.86,129.86,0,0,1,21.09,5.34A40.62,40.62,0,0,1,181.43,36,42.55,42.55,0,0,1,181.94,62.69Z" transform="translate(0.03 -1.14)"/><path class="cls-6" d="M171.82,21.1a129.86,129.86,0,0,0-21.09-5.34C145.48,11,137.91,8,128.8,6.84h0a16,16,0,0,0-7.18-3.24C142.82,3.85,160.72,10,171.82,21.1Z" transform="translate(0.03 -1.14)"/><path class="cls-6" d="M155.75,47.39q-1.71-.87-3.45-1.71A240.77,240.77,0,0,0,126.65,35c5.1-7.53,7.35-15.07,6.21-21a126.24,126.24,0,0,1,17.87,1.73,23.81,23.81,0,0,1,5.71,7.72C159.73,30.58,159.32,38.86,155.75,47.39Z" transform="translate(0.03 -1.14)"/><path class="cls-6" d="M155.75,47.39c-3,7.18-8.26,14.54-15.43,21.51a248.7,248.7,0,0,0-23.85-22.38A62.93,62.93,0,0,0,126.65,35,240.77,240.77,0,0,1,152.3,45.68Q154,46.52,155.75,47.39Z" transform="translate(0.03 -1.14)"/><path class="cls-6" d="M140.32,68.9a121.51,121.51,0,0,1-33.58,22.5q-4.17,1.93-8.32,3.55A312.84,312.84,0,0,1,87.35,63.09Q90.65,62,94,60.56a79.39,79.39,0,0,0,22.47-14A248.7,248.7,0,0,1,140.32,68.9Z" transform="translate(0.03 -1.14)"/><path class="cls-6" d="M98.42,95a124.93,124.93,0,0,1-31.8,8,146.74,146.74,0,0,1-.12-34.91,100.52,100.52,0,0,0,20.85-5A312.84,312.84,0,0,0,98.42,95Z" transform="translate(0.03 -1.14)"/><path class="cls-6" d="M66.62,103a77.92,77.92,0,0,1-22.41-.53,144.78,144.78,0,0,1,7.14-34.16,64.08,64.08,0,0,0,15.15-.22A146.74,146.74,0,0,0,66.62,103Z" transform="translate(0.03 -1.14)"/></g><g class="cls-7"><g class="cls-7"><g class="cls-8"><path class="cls-9" d="M90.73,134.32q-3.14.93-6.17,1.73,1.43,4.5,3.06,8.93a44.8,44.8,0,0,0,3.66,7.64c-1.28-1.44-2.61-2.79-4.92-5-2.84-2.89-6.59-6.76-9.29-9.78q-3.36.72-6.56,1.25A155.87,155.87,0,0,0,81.8,168.74q2.9-.48,5.91-1.1c-2.32-4.57-4.42-9.27-6.31-14.06A38,38,0,0,0,79,148.81a49,49,0,0,0,4.89,5.6c3.74,3.43,8.82,7.89,12.72,11.14,2.13-.56,4.31-1.17,6.51-1.82a217.19,217.19,0,0,1-12.38-29.41" transform="translate(0.03 -1.14)"/><path class="cls-9" d="M105.58,128.82c-13.93,5.56-6.15,25.38,3.33,29.69,8.29,3.76,21.62-1.75,16.92-15.35-2.46.83-5.74,2-8.21,2.77,2.41,6.89-3,6.87-4.6,6.06-3.54-1.78-9.84-14.87-4.27-16.59,1.53-.47,3.76-.11,5.79,4.28,2.35-1.12,5.51-2.58,7.84-3.74-2.92-5-8.2-10.35-16.8-7.12" transform="translate(0.03 -1.14)"/><path class="cls-9" d="M141.51,113l-2.64,1.4c-6.23,3.26-12.41,6.24-18.49,8.91,4.36,9.72,9.05,19.43,14,28.82,6.4-2.82,12.91-6,19.47-9.39.94-.49,1.86-1,2.78-1.48L153,134.55,150.25,136q-5.33,2.79-10.59,5.31l-2.39-4.66c3.49-1.67,7-3.43,10.53-5.28l.21-.11-3.33-6.3-.2.1q-5.23,2.74-10.41,5.22L132,126.12q5.13-2.45,10.3-5.16c.91-.47,1.8-.95,2.7-1.43-1.17-2.17-2.33-4.35-3.49-6.51" transform="translate(0.03 -1.14)"/><path class="cls-9" d="M164.85,128.48,162,123.39l3.81-2.29c3.91-2.31,5.3,1.08,4.91,2.77A3.68,3.68,0,0,1,169,126c-1.35.83-2.73,1.66-4.11,2.47m-6.17-11c-.89-1.56-1.78-3.13-2.68-4.69l3.67-2.2c3.78-2.17,4.74,1.59,4.38,2.87a3.3,3.3,0,0,1-1.52,1.71q-1.91,1.17-3.85,2.31m-.27-14.2q-6.51,4.07-13.52,7.94c5.14,9.33,10.28,18.81,15.28,28.16,4.61-2.55,9.09-5.16,13.4-7.83,13.43-8.55,3-17.12.83-17.65a8.38,8.38,0,0,0-4.52.36c5-5.85-1.15-13.33-6.77-12.77a11.85,11.85,0,0,0-4.7,1.79" transform="translate(0.03 -1.14)"/></g></g></g></svg>