<svg xmlns="http://www.w3.org/2000/svg" xmlns:xlink="http://www.w3.org/1999/xlink" style="margin:auto;background:transparent;display:block;z-index:1;position:relative" width="475" height="445" preserveAspectRatio="xMidYMid" viewBox="0 0 475 445">
<g transform="translate(237.5,222.5) scale(1,1) translate(-237.5,-222.5)"><path id="path0" d="M 33.08229894345618 124.18881112546951
c 0 35.47751935799293 -8.680669630147205 10.190351304955417 -18.87102093510262 10.190351304955417
S -4.659742926749063 159.66633048346245 -4.659742926749063 124.18881112546951
s 8.680669630147205 -10.190351304955417 18.87102093510262 -10.190351304955417
S 33.08229894345618 88.71129176747658 33.08229894345618 124.18881112546951
z" fill="none" stroke="none"></path>
<circle cx="0" cy="0" r="2.7220801517981403" fill="#ff6300" opacity="0.9">
  <animateMotion begin="-0.04136596737692633s" dur="5.45s" repeatCount="indefinite">
    <mpath xlink:href="#path0"></mpath>
  </animateMotion>
</circle><path id="path1" d="M 406.4603371178578 81.81496565664789
c 0 22.07759361271542 -5.401964394600581 6.34143646322677 -11.74340085782735 6.34143646322677
S 382.97353540220314 103.8925592693633 382.97353540220314 81.81496565664789
s 5.401964394600581 -6.34143646322677 11.74340085782735 -6.34143646322677
S 406.4603371178578 59.73737204393247 406.4603371178578 81.81496565664789
z" fill="none" stroke="none"></path>
<circle cx="0" cy="0" r="3.512474806012094" fill="#830189" opacity="0.9">
  <animateMotion begin="-1.9226142929955812s" dur="5.45s" repeatCount="indefinite">
    <mpath xlink:href="#path1"></mpath>
  </animateMotion>
</circle><path id="path2" d="M 99.53502363759534 299.33329103059214
c 0 23.629441409734724 -5.781671834296793 6.7871799793918886 -12.568851813688681 6.7871799793918886
S 74.39732001021798 322.9627324403269 74.39732001021798 299.33329103059214
s 5.781671834296793 -6.7871799793918886 12.568851813688681 -6.7871799793918886
S 99.53502363759534 275.7038496208574 99.53502363759534 299.33329103059214
z" fill="none" stroke="none"></path>
<circle cx="0" cy="0" r="4.3665405318243184" fill="#ffff01" opacity="0.9">
  <animateMotion begin="-1.2936384694915481s" dur="5.45s" repeatCount="indefinite">
    <mpath xlink:href="#path2"></mpath>
  </animateMotion>
</circle><path id="path3" d="M 125.68487975972332 123.50017707110375
c 0 37.17380532164376 -9.095718323380918 10.67758237962108 -19.773300703002 10.67758237962108
S 86.1382783537193 160.67398239274752 86.1382783537193 123.50017707110375
s 9.095718323380918 -10.67758237962108 19.773300703002 -10.67758237962108
S 125.68487975972332 86.32637174945998 125.68487975972332 123.50017707110375
z" fill="none" stroke="none"></path>
<circle cx="0" cy="0" r="2.8233670825558734" fill="#ffff01" opacity="0.9">
  <animateMotion begin="-1.664591971563302s" dur="5.45s" repeatCount="indefinite">
    <mpath xlink:href="#path3"></mpath>
  </animateMotion>
</circle><path id="path4" d="M 428.817879873508 265.8476012429646
c 0 19.436788852484703 -4.755810038373916 5.582907436351989 -10.338717474725904 5.582907436351989
S 408.14044492405617 285.2843900954493 408.14044492405617 265.8476012429646
s 4.755810038373916 -5.582907436351989 10.338717474725904 -5.582907436351989
S 428.817879873508 246.41081239047986 428.817879873508 265.8476012429646
z" fill="none" stroke="none"></path>
<circle cx="0" cy="0" r="3.1180679676313243" fill="#4600ff" opacity="0.9">
  <animateMotion begin="-0.14890811076930519s" dur="5.45s" repeatCount="indefinite">
    <mpath xlink:href="#path4"></mpath>
  </animateMotion>
</circle><path id="path5" d="M 27.915649739027135 298.40644139948245
c 0 37.0378831875812 -9.06246077994008 10.638540915581835 -19.701001695521917 10.638540915581835
S -11.4863536520167 335.44432458706365 -11.4863536520167 298.40644139948245
s 9.06246077994008 -10.638540915581835 19.701001695521917 -10.638540915581835
S 27.915649739027135 261.36855821190125 27.915649739027135 298.40644139948245
z" fill="none" stroke="none"></path>
<circle cx="0" cy="0" r="2.4881444391653895" fill="#ffff01" opacity="0.9">
  <animateMotion begin="-2.892079743311355s" dur="5.45s" repeatCount="indefinite">
    <mpath xlink:href="#path5"></mpath>
  </animateMotion>
</circle><path id="path6" d="M 233.35456417099604 386.02546601151323
c 0 30.08104865368684 -7.3602565854765665 8.640301209037709 -16.000557794514275 8.640301209037709
S 201.3534485819675 416.10651466520005 201.3534485819675 386.02546601151323
s 7.3602565854765665 -8.640301209037709 16.000557794514275 -8.640301209037709
S 233.35456417099604 355.9444173578264 233.35456417099604 386.02546601151323
z" fill="none" stroke="none"></path>
<circle cx="0" cy="0" r="3.133120244136152" fill="#fe0000" opacity="0.9">
  <animateMotion begin="-1.542989182778362s" dur="5.45s" repeatCount="indefinite">
    <mpath xlink:href="#path6"></mpath>
  </animateMotion>
</circle><path id="path7" d="M 238.15335981838143 223.61908202205146
c 0 37.52514198758747 -9.181683677813954 10.778498230477252 -19.960181908291204 10.778498230477252
S 198.232996001799 261.14422400963895 198.232996001799 223.61908202205146
s 9.181683677813954 -10.778498230477252 19.960181908291204 -10.778498230477252
S 238.15335981838143 186.093940034464 238.15335981838143 223.61908202205146
z" fill="none" stroke="none"></path>
<circle cx="0" cy="0" r="2.2999829679929706" fill="#008001" opacity="0.9">
  <animateMotion begin="-1.4253534852843985s" dur="5.45s" repeatCount="indefinite">
    <mpath xlink:href="#path7"></mpath>
  </animateMotion>
</circle><path id="path8" d="M 35.2926928935272 227.43188028637192
c 0 37.29057938365225 -9.124290700255337 10.711123865517136 -19.835414565772474 10.711123865517136
S -4.378136238017742 264.7224596700242 -4.378136238017742 227.43188028637192
s 9.124290700255337 -10.711123865517136 19.835414565772474 -10.711123865517136
S 35.2926928935272 190.14130090271968 35.2926928935272 227.43188028637192
z" fill="none" stroke="none"></path>
<circle cx="0" cy="0" r="3.18468412888583" fill="#4600ff" opacity="0.9">
  <animateMotion begin="-2.8354837929759977s" dur="5.45s" repeatCount="indefinite">
    <mpath xlink:href="#path8"></mpath>
  </animateMotion>
</circle><path id="path9" d="M 49.00280938837507 249.12015636250564
c 0 31.992358177500915 -7.8279174264097975 9.189294370133242 -17.017211796543037 9.189294370133242
S 14.968385795288992 281.11251454000654 14.968385795288992 249.12015636250564
s 7.8279174264097975 -9.189294370133242 17.017211796543037 -9.189294370133242
S 49.00280938837507 217.12779818500474 49.00280938837507 249.12015636250564
z" fill="none" stroke="none"></path>
<circle cx="0" cy="0" r="2.722562325480695" fill="#830189" opacity="0.9">
  <animateMotion begin="-3.6155044121998077s" dur="5.45s" repeatCount="indefinite">
    <mpath xlink:href="#path9"></mpath>
  </animateMotion>
</circle><path id="path10" d="M 80.16385039553646 256.3959244238381
c 0 19.930859244443386 -4.876699602363807 5.724821272340122 -10.60152087470393 5.724821272340122
S 58.96080864612859 276.3267836682815 58.96080864612859 256.3959244238381
s 4.876699602363807 -5.724821272340122 10.60152087470393 -5.724821272340122
S 80.16385039553646 236.4650651793947 80.16385039553646 256.3959244238381
z" fill="none" stroke="none"></path>
<circle cx="0" cy="0" r="2.647035433455702" fill="#ff6300" opacity="0.9">
  <animateMotion begin="-2.5066557157337286s" dur="5.45s" repeatCount="indefinite">
    <mpath xlink:href="#path10"></mpath>
  </animateMotion>
</circle><path id="path11" d="M 423.2636042111053 438.31602011317415
c 0 30.16378617962813 -7.3805008737387965 8.664066243084676 -16.044567116823472 8.664066243084676
S 391.17446997745833 468.47980629280227 391.17446997745833 438.31602011317415
s 7.3805008737387965 -8.664066243084676 16.044567116823472 -8.664066243084676
S 423.2636042111053 408.15223393354603 423.2636042111053 438.31602011317415
z" fill="none" stroke="none"></path>
<circle cx="0" cy="0" r="2.603931449819154" fill="#fe0000" opacity="0.9">
  <animateMotion begin="-4.8173239664621725s" dur="5.45s" repeatCount="indefinite">
    <mpath xlink:href="#path11"></mpath>
  </animateMotion>
</circle><path id="path12" d="M 85.59643129505803 211.22062964674936
c 0 21.88241878115182 -5.3542088507073595 6.285375607352118 -11.639584458059478 6.285375607352118
S 62.31726237893908 233.10304842790117 62.31726237893908 211.22062964674936
s 5.3542088507073595 -6.285375607352118 11.639584458059478 -6.285375607352118
S 85.59643129505803 189.33821086559755 85.59643129505803 211.22062964674936
z" fill="none" stroke="none"></path>
<circle cx="0" cy="0" r="2.711753746799351" fill="#fe0000" opacity="0.9">
  <animateMotion begin="-0.15713894861391714s" dur="5.45s" repeatCount="indefinite">
    <mpath xlink:href="#path12"></mpath>
  </animateMotion>
</circle><path id="path13" d="M 39.540453615376386 191.89684600850157
c 0 30.346597630486443 -7.4252313351190224 8.716575915139723 -16.141807250258747 8.716575915139723
S 7.2568391148588915 222.24344363898803 7.2568391148588915 191.89684600850157
s 7.4252313351190224 -8.716575915139723 16.141807250258747 -8.716575915139723
S 39.540453615376386 161.5502483780151 39.540453615376386 191.89684600850157
z" fill="none" stroke="none"></path>
<circle cx="0" cy="0" r="3.575530446122047" fill="#fe0000" opacity="0.9">
  <animateMotion begin="-4.622040592625063s" dur="5.45s" repeatCount="indefinite">
    <mpath xlink:href="#path13"></mpath>
  </animateMotion>
</circle><path id="path14" d="M 350.4499576467824 101.57789396160848
c 0 20.25403309509545 -4.955774055182928 5.817647803910395 -10.773421859093324 5.817647803910395
S 328.90311392859576 121.83192705670393 328.90311392859576 101.57789396160848
s 4.955774055182928 -5.817647803910395 10.773421859093324 -5.817647803910395
S 350.4499576467824 81.32386086651303 350.4499576467824 101.57789396160848
z" fill="none" stroke="none"></path>
<circle cx="0" cy="0" r="2.533601943922113" fill="#830189" opacity="0.9">
  <animateMotion begin="-2.910167693279357s" dur="5.45s" repeatCount="indefinite">
    <mpath xlink:href="#path14"></mpath>
  </animateMotion>
</circle><path id="path15" d="M 326.10900118990054 44.71538836166409
c 0 26.929858333684198 -6.589220656114218 7.735172074568866 -14.324392730683083 7.735172074568866
S 297.46021572853437 71.64524669534829 297.46021572853437 44.71538836166409
s 6.589220656114218 -7.735172074568866 14.324392730683083 -7.735172074568866
S 326.10900118990054 17.785530027979892 326.10900118990054 44.71538836166409
z" fill="none" stroke="none"></path>
<circle cx="0" cy="0" r="2.7725050326736334" fill="#4600ff" opacity="0.9">
  <animateMotion begin="-1.9769377146028821s" dur="5.45s" repeatCount="indefinite">
    <mpath xlink:href="#path15"></mpath>
  </animateMotion>
</circle><path id="path16" d="M 276.8127779373034 319.6701316055327
c 0 22.885142934884886 -5.599556250025025 6.573392119594596 -12.17294836961962 6.573392119594596
S 252.46688119806413 342.55527454041754 252.46688119806413 319.6701316055327
s 5.599556250025025 -6.573392119594596 12.17294836961962 -6.573392119594596
S 276.8127779373034 296.7849886706478 276.8127779373034 319.6701316055327
z" fill="none" stroke="none"></path>
<circle cx="0" cy="0" r="4.0799591021334844" fill="#008001" opacity="0.9">
  <animateMotion begin="-3.0464654432883935s" dur="5.45s" repeatCount="indefinite">
    <mpath xlink:href="#path16"></mpath>
  </animateMotion>
</circle><path id="path17" d="M 172.47972557428713 91.80475434324397
c 0 31.833036428669853 -7.788934445312836 9.143531740149852 -16.932466185462687 9.143531740149852
S 138.61479320336176 123.63779077191383 138.61479320336176 91.80475434324397
s 7.788934445312836 -9.143531740149852 16.932466185462687 -9.143531740149852
S 172.47972557428713 59.971717914574114 172.47972557428713 91.80475434324397
z" fill="none" stroke="none"></path>
<circle cx="0" cy="0" r="3.0761455639985544" fill="#4600ff" opacity="0.9">
  <animateMotion begin="-1.4370796399099002s" dur="5.45s" repeatCount="indefinite">
    <mpath xlink:href="#path17"></mpath>
  </animateMotion>
</circle><path id="path18" d="M 429.59873346582 313.10486472098927
c 0 31.058786150587068 -7.599490228335133 8.9211407028282 -16.520630931163332 8.9211407028282
S 396.5574716034933 344.16365087157635 396.5574716034933 313.10486472098927
s 7.599490228335133 -8.9211407028282 16.520630931163332 -8.9211407028282
S 429.59873346582 282.0460785704022 429.59873346582 313.10486472098927
z" fill="none" stroke="none"></path>
<circle cx="0" cy="0" r="2.6646647673897204" fill="#fe0000" opacity="0.9">
  <animateMotion begin="-0.9705372761788147s" dur="5.45s" repeatCount="indefinite">
    <mpath xlink:href="#path18"></mpath>
  </animateMotion>
</circle><path id="path19" d="M 61.6036830913206 375.91015642785106
c 0 25.898592242423614 -6.336889591231309 7.43895734622806 -13.775846937459368 7.43895734622806
S 34.05198921640186 401.80874867027467 34.05198921640186 375.91015642785106
s 6.336889591231309 -7.43895734622806 13.775846937459368 -7.43895734622806
S 61.6036830913206 350.01156418542746 61.6036830913206 375.91015642785106
z" fill="none" stroke="none"></path>
<circle cx="0" cy="0" r="3.1429899657341163" fill="#ff6300" opacity="0.9">
  <animateMotion begin="-4.327262506032948s" dur="5.45s" repeatCount="indefinite">
    <mpath xlink:href="#path19"></mpath>
  </animateMotion>
</circle><path id="path20" d="M 75.03509618586862 3.362415962326865
c 0 24.349356942102162 -5.957821379450528 6.993964228050621 -12.951785607501149 6.993964228050621
S 49.13152497086632 27.711772904429026 49.13152497086632 3.362415962326865
s 5.957821379450528 -6.993964228050621 12.951785607501149 -6.993964228050621
S 75.03509618586862 -20.986940979775298 75.03509618586862 3.362415962326865
z" fill="none" stroke="none"></path>
<circle cx="0" cy="0" r="2.4876636129249547" fill="#fe0000" opacity="0.9">
  <animateMotion begin="-2.5241931902619408s" dur="5.45s" repeatCount="indefinite">
    <mpath xlink:href="#path20"></mpath>
  </animateMotion>
</circle><path id="path21" d="M 459.99848424343776 196.19711316750957
c 0 27.785704125576878 -6.798629732853916 7.981000121176337 -14.779629854030254 7.981000121176337
S 430.43922453537726 223.98281729308644 430.43922453537726 196.19711316750957
s 6.798629732853916 -7.981000121176337 14.779629854030254 -7.981000121176337
S 459.99848424343776 168.4114090419327 459.99848424343776 196.19711316750957
z" fill="none" stroke="none"></path>
<circle cx="0" cy="0" r="3.0283161892794728" fill="#008001" opacity="0.9">
  <animateMotion begin="-4.789628055046128s" dur="5.45s" repeatCount="indefinite">
    <mpath xlink:href="#path21"></mpath>
  </animateMotion>
</circle><path id="path22" d="M 225.8128054425017 5.729696915523174
c 0 30.0317651478426 -7.348197855323188 8.626145308422874 -15.974343163746063 8.626145308422874
S 193.8641191150096 35.76146206336577 193.8641191150096 5.729696915523174
s 7.348197855323188 -8.626145308422874 15.974343163746063 -8.626145308422874
S 225.8128054425017 -24.302068232319424 225.8128054425017 5.729696915523174
z" fill="none" stroke="none"></path>
<circle cx="0" cy="0" r="4.191882617757318" fill="#fe0000" opacity="0.9">
  <animateMotion begin="-4.757681665677489s" dur="5.45s" repeatCount="indefinite">
    <mpath xlink:href="#path22"></mpath>
  </animateMotion>
</circle><path id="path23" d="M 311.99240136727894 93.54248935018511
c 0 19.00939219941465 -4.651234261558903 5.460144567916974 -10.111378829475877 5.460144567916974
S 291.7696437083272 112.55188154959976 291.7696437083272 93.54248935018511
s 4.651234261558903 -5.460144567916974 10.111378829475877 -5.460144567916974
S 311.99240136727894 74.53309715077046 311.99240136727894 93.54248935018511
z" fill="none" stroke="none"></path>
<circle cx="0" cy="0" r="3.2537000187999494" fill="#008001" opacity="0.9">
  <animateMotion begin="-5.153875817309922s" dur="5.45s" repeatCount="indefinite">
    <mpath xlink:href="#path23"></mpath>
  </animateMotion>
</circle><path id="path24" d="M 128.95622787633494 47.68111125082907
c 0 26.97510925768008 -6.600292690708955 7.74816968039747 -14.348462371106425 7.74816968039747
S 100.25930313412209 74.65622050850915 100.25930313412209 47.68111125082907
s 6.600292690708955 -7.74816968039747 14.348462371106425 -7.74816968039747
S 128.95622787633494 20.706001993148988 128.95622787633494 47.68111125082907
z" fill="none" stroke="none"></path>
<circle cx="0" cy="0" r="3.762391191866025" fill="#ff6300" opacity="0.9">
  <animateMotion begin="-4.187269664358365s" dur="5.45s" repeatCount="indefinite">
    <mpath xlink:href="#path24"></mpath>
  </animateMotion>
</circle><path id="path25" d="M 432.8325735015886 209.71811699692915
c 0 27.50788264225362 -6.7306521358705655 7.901200333413274 -14.631852469283839 7.901200333413274
S 403.56886856302094 237.22599963918276 403.56886856302094 209.71811699692915
s 6.7306521358705655 -7.901200333413274 14.631852469283839 -7.901200333413274
S 432.8325735015886 182.21023435467555 432.8325735015886 209.71811699692915
z" fill="none" stroke="none"></path>
<circle cx="0" cy="0" r="3.5271925066740777" fill="#ffff01" opacity="0.9">
  <animateMotion begin="-2.0048132398883203s" dur="5.45s" repeatCount="indefinite">
    <mpath xlink:href="#path25"></mpath>
  </animateMotion>
</circle><path id="path26" d="M 435.4611895647406 66.7439109494584
c 0 30.721240372344354 -7.5168992400417025 8.824186064396782 -16.341085304438487 8.824186064396782
S 402.77901895586365 97.46515132180275 402.77901895586365 66.7439109494584
s 7.5168992400417025 -8.824186064396782 16.341085304438487 -8.824186064396782
S 435.4611895647406 36.02267057711404 435.4611895647406 66.7439109494584
z" fill="none" stroke="none"></path>
<circle cx="0" cy="0" r="4.095817919283471" fill="#ff6300" opacity="0.9">
  <animateMotion begin="-2.683810084303651s" dur="5.45s" repeatCount="indefinite">
    <mpath xlink:href="#path26"></mpath>
  </animateMotion>
</circle><path id="path27" d="M 399.7890200775938 129.60231728364255
c 0 31.812298071463665 -7.78386016642196 9.137574977973607 -16.921435144395566 9.137574977973607
S 365.9461497888027 161.4146153551062 365.9461497888027 129.60231728364255
s 7.78386016642196 -9.137574977973607 16.921435144395566 -9.137574977973607
S 399.7890200775938 97.79001921217889 399.7890200775938 129.60231728364255
z" fill="none" stroke="none"></path>
<circle cx="0" cy="0" r="4.264103337167336" fill="#008001" opacity="0.9">
  <animateMotion begin="-2.8198502894198754s" dur="5.45s" repeatCount="indefinite">
    <mpath xlink:href="#path27"></mpath>
  </animateMotion>
</circle><path id="path28" d="M 143.00210420003657 229.92133968580444
c 0 35.12181924538198 -8.593636623870058 10.088182123673546 -18.681818747543602 10.088182123673546
S 105.63846670494937 265.04315893118644 105.63846670494937 229.92133968580444
s 8.593636623870058 -10.088182123673546 18.681818747543602 -10.088182123673546
S 143.00210420003657 194.79952044042247 143.00210420003657 229.92133968580444
z" fill="none" stroke="none"></path>
<circle cx="0" cy="0" r="3.6468948633735345" fill="#fe0000" opacity="0.9">
  <animateMotion begin="-4.0037863735567045s" dur="5.45s" repeatCount="indefinite">
    <mpath xlink:href="#path28"></mpath>
  </animateMotion>
</circle><path id="path29" d="M 439.61974376466 321.9704189677604
c 0 30.650234460936666 -7.499525453207907 8.80379074941798 -16.303316202625886 8.80379074941798
S 407.01311135940824 352.62065342869704 407.01311135940824 321.9704189677604
s 7.499525453207907 -8.80379074941798 16.303316202625886 -8.80379074941798
S 439.61974376466 291.32018450682375 439.61974376466 321.9704189677604
z" fill="none" stroke="none"></path>
<circle cx="0" cy="0" r="3.8325458020451566" fill="#ff6300" opacity="0.9">
  <animateMotion begin="-1.6397405807541479s" dur="5.45s" repeatCount="indefinite">
    <mpath xlink:href="#path29"></mpath>
  </animateMotion>
</circle><path id="path30" d="M 203.38471898019768 412.75274537037916
c 0 21.008126645726556 -5.140286306933093 6.034249142921458 -11.17453544985455 6.034249142921458
S 181.03564808048858 433.76087201610574 181.03564808048858 412.75274537037916
s 5.140286306933093 -6.034249142921458 11.17453544985455 -6.034249142921458
S 203.38471898019768 391.7446187246526 203.38471898019768 412.75274537037916
z" fill="none" stroke="none"></path>
<circle cx="0" cy="0" r="2.5330883047485897" fill="#008001" opacity="0.9">
  <animateMotion begin="-0.1345181595811822s" dur="5.45s" repeatCount="indefinite">
    <mpath xlink:href="#path30"></mpath>
  </animateMotion>
</circle><path id="path31" d="M 206.10771173922396 397.942112594213
c 0 33.409076887832455 -8.17456136617177 9.596224212462515 -17.770785578634285 9.596224212462515
S 170.5661405819554 431.3511894820454 170.5661405819554 397.942112594213
s 8.17456136617177 -9.596224212462515 17.770785578634285 -9.596224212462515
S 206.10771173922396 364.53303570638053 206.10771173922396 397.942112594213
z" fill="none" stroke="none"></path>
<circle cx="0" cy="0" r="2.9392606526807485" fill="#fe0000" opacity="0.9">
  <animateMotion begin="-3.94247230797172s" dur="5.45s" repeatCount="indefinite">
    <mpath xlink:href="#path31"></mpath>
  </animateMotion>
</circle><path id="path32" d="M 209.11943724877472 290.69608236379736
c 0 28.977305817049945 -7.090191848852645 8.323268692131368 -15.413460540984012 8.323268692131368
S 178.2925161668067 319.6733881808473 178.2925161668067 290.69608236379736
s 7.090191848852645 -8.323268692131368 15.413460540984012 -8.323268692131368
S 209.11943724877472 261.7187765467474 209.11943724877472 290.69608236379736
z" fill="none" stroke="none"></path>
<circle cx="0" cy="0" r="2.401360474729943" fill="#008001" opacity="0.9">
  <animateMotion begin="-4.503573643736962s" dur="5.45s" repeatCount="indefinite">
    <mpath xlink:href="#path32"></mpath>
  </animateMotion>
</circle><path id="path33" d="M 58.21095707454392 344.58120090943265
c 0 31.98999193735054 -7.827338452755982 9.188614705409197 -17.015953158165182 9.188614705409197
S 24.179050758213556 376.5711928467832 24.179050758213556 344.58120090943265
s 7.827338452755982 -9.188614705409197 17.015953158165182 -9.188614705409197
S 58.21095707454392 312.5912089720821 58.21095707454392 344.58120090943265
z" fill="none" stroke="none"></path>
<circle cx="0" cy="0" r="4.473066322040655" fill="#fe0000" opacity="0.9">
  <animateMotion begin="-4.049550549483935s" dur="5.45s" repeatCount="indefinite">
    <mpath xlink:href="#path33"></mpath>
  </animateMotion>
</circle><path id="path34" d="M 210.5163749726496 320.53269608527444
c 0 34.95909275868114 -8.55382056861347 10.041441537067987 -18.595262105681456 10.041441537067987
S 173.3258507612867 355.4917888439556 173.3258507612867 320.53269608527444
s 8.55382056861347 -10.041441537067987 18.595262105681456 -10.041441537067987
S 210.5163749726496 285.5736033265933 210.5163749726496 320.53269608527444
z" fill="none" stroke="none"></path>
<circle cx="0" cy="0" r="3.728742601789875" fill="#ffff01" opacity="0.9">
  <animateMotion begin="-5.111003891813395s" dur="5.45s" repeatCount="indefinite">
    <mpath xlink:href="#path34"></mpath>
  </animateMotion>
</circle><path id="path35" d="M 246.35098537577414 300.69523670380926
c 0 34.28534979598583 -8.388968567102914 9.847919622251249 -18.236888189354165 9.847919622251249
S 209.8772089970658 334.9805864997951 209.8772089970658 300.69523670380926
s 8.388968567102914 -9.847919622251249 18.236888189354165 -9.847919622251249
S 246.35098537577414 266.4098869078234 246.35098537577414 300.69523670380926
z" fill="none" stroke="none"></path>
<circle cx="0" cy="0" r="2.7086579322516267" fill="#4600ff" opacity="0.9">
  <animateMotion begin="-4.815789685983172s" dur="5.45s" repeatCount="indefinite">
    <mpath xlink:href="#path35"></mpath>
  </animateMotion>
</circle><path id="path36" d="M 94.65372840275548 277.4469989888638
c 0 30.211183683049935 -7.3920981352143444 8.677680419599449 -16.069778554813794 8.677680419599449
S 62.51417129312789 307.6581826719137 62.51417129312789 277.4469989888638
s 7.3920981352143444 -8.677680419599449 16.069778554813794 -8.677680419599449
S 94.65372840275548 247.23581530581387 94.65372840275548 277.4469989888638
z" fill="none" stroke="none"></path>
<circle cx="0" cy="0" r="3.8644743871088907" fill="#fe0000" opacity="0.9">
  <animateMotion begin="-5.251758920209259s" dur="5.45s" repeatCount="indefinite">
    <mpath xlink:href="#path36"></mpath>
  </animateMotion>
</circle><path id="path37" d="M 445.8679298812507 314.1479162227685
c 0 21.58799118041044 -5.282168054781278 6.200805977351935 -11.482974032133214 6.200805977351935
S 422.9019818169843 335.73590740317894 422.9019818169843 314.1479162227685
s 5.282168054781278 -6.200805977351935 11.482974032133214 -6.200805977351935
S 445.8679298812507 292.5599250423581 445.8679298812507 314.1479162227685
z" fill="none" stroke="none"></path>
<circle cx="0" cy="0" r="4.033331161311907" fill="#ff6300" opacity="0.9">
  <animateMotion begin="-4.005334200777948s" dur="5.45s" repeatCount="indefinite">
    <mpath xlink:href="#path37"></mpath>
  </animateMotion>
</circle><path id="path38" d="M 142.42086516521732 331.6552812747004
c 0 33.835065816647045 -8.278792699817894 9.718582734568834 -17.997375434386726 9.718582734568834
S 106.42611429644388 365.4903470913475 106.42611429644388 331.6552812747004
s 8.278792699817894 -9.718582734568834 17.997375434386726 -9.718582734568834
S 142.42086516521732 297.8202154580534 142.42086516521732 331.6552812747004
z" fill="none" stroke="none"></path>
<circle cx="0" cy="0" r="3.9082442839591724" fill="#ff6300" opacity="0.9">
  <animateMotion begin="-4.839312977029413s" dur="5.45s" repeatCount="indefinite">
    <mpath xlink:href="#path38"></mpath>
  </animateMotion>
</circle><path id="path39" d="M 228.04725219666688 268.3883701217243
c 0 19.24425857950385 -4.708701567325409 5.5276061877298295 -10.236307755055238 5.5276061877298295
S 207.5746366865564 287.6326287012281 207.5746366865564 268.3883701217243
s 4.708701567325409 -5.5276061877298295 10.236307755055238 -5.5276061877298295
S 228.04725219666688 249.14411154222043 228.04725219666688 268.3883701217243
z" fill="none" stroke="none"></path>
<circle cx="0" cy="0" r="3.7026194432719923" fill="#ff6300" opacity="0.9">
  <animateMotion begin="-0.06036205887499908s" dur="5.45s" repeatCount="indefinite">
    <mpath xlink:href="#path39"></mpath>
  </animateMotion>
</circle><path id="path40" d="M 27.512441803392427 219.78768332437514
c 0 35.23706888895777 -8.621836004744985 10.121285744700636 -18.74312174944562 10.121285744700636
S -9.973801695498814 255.0247522133329 -9.973801695498814 219.78768332437514
s 8.621836004744985 -10.121285744700636 18.74312174944562 -10.121285744700636
S 27.512441803392427 184.55061443541737 27.512441803392427 219.78768332437514
z" fill="none" stroke="none"></path>
<circle cx="0" cy="0" r="4.121574801464319" fill="#4600ff" opacity="0.9">
  <animateMotion begin="-2.2731694604522343s" dur="5.45s" repeatCount="indefinite">
    <mpath xlink:href="#path40"></mpath>
  </animateMotion>
</circle><path id="path41" d="M 325.94606297883143 253.87606402830644
c 0 34.60796672389748 -8.467906751591936 9.940586186651405 -18.40849293824334 9.940586186651405
S 289.12907710234475 288.4840307522039 289.12907710234475 253.87606402830644
s 8.467906751591936 -9.940586186651405 18.40849293824334 -9.940586186651405
S 325.94606297883143 219.26809730440897 325.94606297883143 253.87606402830644
z" fill="none" stroke="none"></path>
<circle cx="0" cy="0" r="2.7523086240492236" fill="#ffff01" opacity="0.9">
  <animateMotion begin="-3.0757157615069106s" dur="5.45s" repeatCount="indefinite">
    <mpath xlink:href="#path41"></mpath>
  </animateMotion>
</circle><path id="path42" d="M 215.68001152931782 414.0890503195072
c 0 31.473843990992297 -7.701046933966199 9.040359444221192 -16.741406378187392 9.040359444221192
S 182.19719877294307 445.5628943104995 182.19719877294307 414.0890503195072
s 7.701046933966199 -9.040359444221192 16.741406378187392 -9.040359444221192
S 215.68001152931782 382.6152063285149 215.68001152931782 414.0890503195072
z" fill="none" stroke="none"></path>
<circle cx="0" cy="0" r="2.6520925362814602" fill="#4600ff" opacity="0.9">
  <animateMotion begin="-4.947571774955561s" dur="5.45s" repeatCount="indefinite">
    <mpath xlink:href="#path42"></mpath>
  </animateMotion>
</circle><path id="path43" d="M 210.56510814288194 118.3364860118638
c 0 36.17578658670546 -8.85152224993857 10.390917423840932 -19.2424396737795 10.390917423840932
S 172.08022879532294 154.51227259856927 172.08022879532294 118.3364860118638
s 8.85152224993857 -10.390917423840932 19.2424396737795 -10.390917423840932
S 210.56510814288194 82.16069942515833 210.56510814288194 118.3364860118638
z" fill="none" stroke="none"></path>
<circle cx="0" cy="0" r="2.39343151694771" fill="#008001" opacity="0.9">
  <animateMotion begin="-0.7864544065909029s" dur="5.45s" repeatCount="indefinite">
    <mpath xlink:href="#path43"></mpath>
  </animateMotion>
</circle><path id="path44" d="M 377.5127008865884 312.88058078896603
c 0 30.566866536941376 -7.479126918613315 8.779844643589545 -16.25897156220286 8.779844643589545
S 344.99475776218264 343.44744732590743 344.99475776218264 312.88058078896603
s 7.479126918613315 -8.779844643589545 16.25897156220286 -8.779844643589545
S 377.5127008865884 282.3137142520246 377.5127008865884 312.88058078896603
z" fill="none" stroke="none"></path>
<circle cx="0" cy="0" r="3.3944926694986757" fill="#008001" opacity="0.9">
  <animateMotion begin="-4.719269995189815s" dur="5.45s" repeatCount="indefinite">
    <mpath xlink:href="#path44"></mpath>
  </animateMotion>
</circle><path id="path45" d="M 440.5673896567059 371.8024080366162
c 0 33.49776904443262 -8.196262638531385 9.62169961914554 -17.817962257676925 9.62169961914554
S 404.9314651413521 405.30017708104884 404.9314651413521 371.8024080366162
s 8.196262638531385 -9.62169961914554 17.817962257676925 -9.62169961914554
S 440.5673896567059 338.3046389921836 440.5673896567059 371.8024080366162
z" fill="none" stroke="none"></path>
<circle cx="0" cy="0" r="2.946239089256893" fill="#ff6300" opacity="0.9">
  <animateMotion begin="-3.1605439236758666s" dur="5.45s" repeatCount="indefinite">
    <mpath xlink:href="#path45"></mpath>
  </animateMotion>
</circle><path id="path46" d="M 309.53100873493435 327.9278216827486
c 0 22.799101287289695 -5.578503506464499 6.548678029327891 -12.12718153579239 6.548678029327891
S 285.2766456633496 350.7269229700383 285.2766456633496 327.9278216827486
s 5.578503506464499 -6.548678029327891 12.12718153579239 -6.548678029327891
S 309.53100873493435 305.12872039545886 309.53100873493435 327.9278216827486
z" fill="none" stroke="none"></path>
<circle cx="0" cy="0" r="2.9883847356663225" fill="#008001" opacity="0.9">
  <animateMotion begin="-2.7876026439547053s" dur="5.45s" repeatCount="indefinite">
    <mpath xlink:href="#path46"></mpath>
  </animateMotion>
</circle><path id="path47" d="M 133.19444550966222 106.66227481414998
c 0 23.29236084534174 -5.699194674924042 6.6903589662151814 -12.389553641139223 6.6903589662151814
S 108.41533822738378 129.95463565949171 108.41533822738378 106.66227481414998
s 5.699194674924042 -6.6903589662151814 12.389553641139223 -6.6903589662151814
S 133.19444550966222 83.36991396880825 133.19444550966222 106.66227481414998
z" fill="none" stroke="none"></path>
<circle cx="0" cy="0" r="3.9530148265588854" fill="#008001" opacity="0.9">
  <animateMotion begin="-1.6672368675336764s" dur="5.45s" repeatCount="indefinite">
    <mpath xlink:href="#path47"></mpath>
  </animateMotion>
</circle><path id="path48" d="M 220.56275466141287 426.5341884619001
c 0 23.968688965420856 -5.864679214943401 6.884623426237906 -12.749302641181306 6.884623426237906
S 195.06414937905024 450.502877427321 195.06414937905024 426.5341884619001
s 5.864679214943401 -6.884623426237906 12.749302641181306 -6.884623426237906
S 220.56275466141287 402.5654994964792 220.56275466141287 426.5341884619001
z" fill="none" stroke="none"></path>
<circle cx="0" cy="0" r="2.9079372605309888" fill="#ff6300" opacity="0.9">
  <animateMotion begin="-1.3787447677098463s" dur="5.45s" repeatCount="indefinite">
    <mpath xlink:href="#path48"></mpath>
  </animateMotion>
</circle><path id="path49" d="M 77.0120532577326 315.5219370481039
c 0 30.14069112268077 -7.37484995554955 8.65743255651469 -16.03228251206424 8.65743255651469
S 44.94748823360413 345.66262817078467 44.94748823360413 315.5219370481039
s 7.37484995554955 -8.65743255651469 16.03228251206424 -8.65743255651469
S 77.0120532577326 285.3812459254231 77.0120532577326 315.5219370481039
z" fill="none" stroke="none"></path>
<circle cx="0" cy="0" r="4.347884845083311" fill="#ffff01" opacity="0.9">
  <animateMotion begin="-3.4880376959967996s" dur="5.45s" repeatCount="indefinite">
    <mpath xlink:href="#path49"></mpath>
  </animateMotion>
</circle><path id="path50" d="M 381.684572072198 95.30382878870378
c 0 25.940787649012698 -6.34721399922651 7.451077303439818 -13.798291302666328 7.451077303439818
S 354.0879894668654 121.24461643771647 354.0879894668654 95.30382878870378
s 6.34721399922651 -7.451077303439818 13.798291302666328 -7.451077303439818
S 381.684572072198 69.36304113969109 381.684572072198 95.30382878870378
z" fill="none" stroke="none"></path>
<circle cx="0" cy="0" r="3.075029701817998" fill="#830189" opacity="0.9">
  <animateMotion begin="-0.8742158212616736s" dur="5.45s" repeatCount="indefinite">
    <mpath xlink:href="#path50"></mpath>
  </animateMotion>
</circle><path id="path51" d="M 41.640320481467896 200.65788336781395
c 0 26.54546266763453 -6.495166397399937 7.624760553469493 -14.11992695086943 7.624760553469493
S 13.400466579729038 227.20334603544848 13.400466579729038 200.65788336781395
s 6.495166397399937 -7.624760553469493 14.11992695086943 -7.624760553469493
S 41.640320481467896 174.11242070017943 41.640320481467896 200.65788336781395
z" fill="none" stroke="none"></path>
<circle cx="0" cy="0" r="4.487951108460047" fill="#830189" opacity="0.9">
  <animateMotion begin="-3.930528752809388s" dur="5.45s" repeatCount="indefinite">
    <mpath xlink:href="#path51"></mpath>
  </animateMotion>
</circle><path id="path52" d="M 241.73613535696632 238.09117767926207
c 0 27.968214197874808 -6.843286452671494 8.033423227049147 -14.87670967972064 8.033423227049147
S 211.98271599752502 266.0593918771369 211.98271599752502 238.09117767926207
s 6.843286452671494 -8.033423227049147 14.87670967972064 -8.033423227049147
S 241.73613535696632 210.12296348138727 241.73613535696632 238.09117767926207
z" fill="none" stroke="none"></path>
<circle cx="0" cy="0" r="3.363631174068907" fill="#ffff01" opacity="0.9">
  <animateMotion begin="-3.3502034188220815s" dur="5.45s" repeatCount="indefinite">
    <mpath xlink:href="#path52"></mpath>
  </animateMotion>
</circle><path id="path53" d="M 295.48193367378974 103.95939981960868
c 0 28.720730144247444 -7.027412694869055 8.2495714244115 -15.276984119280554 8.2495714244115
S 264.92796543522866 132.68012996385613 264.92796543522866 103.95939981960868
s 7.027412694869055 -8.2495714244115 15.276984119280554 -8.2495714244115
S 295.48193367378974 75.23866967536124 295.48193367378974 103.95939981960868
z" fill="none" stroke="none"></path>
<circle cx="0" cy="0" r="4.113353900208669" fill="#fe0000" opacity="0.9">
  <animateMotion begin="-3.322865583193113s" dur="5.45s" repeatCount="indefinite">
    <mpath xlink:href="#path53"></mpath>
  </animateMotion>
</circle><path id="path54" d="M 360.7039780477553 177.57738979532272
c 0 34.973355724525334 -8.55731044323492 10.045538346406213 -18.602848789641133 10.045538346406213
S 323.498280468473 212.55074551984805 323.498280468473 177.57738979532272
s 8.55731044323492 -10.045538346406213 18.602848789641133 -10.045538346406213
S 360.7039780477553 142.60403407079738 360.7039780477553 177.57738979532272
z" fill="none" stroke="none"></path>
<circle cx="0" cy="0" r="4.169400129351382" fill="#830189" opacity="0.9">
  <animateMotion begin="-3.680542521224084s" dur="5.45s" repeatCount="indefinite">
    <mpath xlink:href="#path54"></mpath>
  </animateMotion>
</circle><path id="path55" d="M 116.91993928556278 64.51416453096283
c 0 30.77166904814058 -7.529238171353545 8.838670896806338 -16.367909068159882 8.838670896806338
S 84.18412114924303 95.28583357910341 84.18412114924303 64.51416453096283
s 7.529238171353545 -8.838670896806338 16.367909068159882 -8.838670896806338
S 116.91993928556278 33.74249548282225 116.91993928556278 64.51416453096283
z" fill="none" stroke="none"></path>
<circle cx="0" cy="0" r="4.389153892093232" fill="#4600ff" opacity="0.9">
  <animateMotion begin="-1.7248073042603247s" dur="5.45s" repeatCount="indefinite">
    <mpath xlink:href="#path55"></mpath>
  </animateMotion>
</circle><path id="path56" d="M 353.5123572680375 380.3683432189854
c 0 19.457660493628744 -4.760916929292139 5.588902482212512 -10.349819411504651 5.588902482212512
S 332.81271844502817 399.8260037126141 332.81271844502817 380.3683432189854
s 4.760916929292139 -5.588902482212512 10.349819411504651 -5.588902482212512
S 353.5123572680375 360.91068272535665 353.5123572680375 380.3683432189854
z" fill="none" stroke="none"></path>
<circle cx="0" cy="0" r="3.5172315203488385" fill="#830189" opacity="0.9">
  <animateMotion begin="-0.622885998660461s" dur="5.45s" repeatCount="indefinite">
    <mpath xlink:href="#path56"></mpath>
  </animateMotion>
</circle><path id="path57" d="M 77.87443275552323 16.376203677077434
c 0 34.614726957650056 -8.469560851339907 9.942527955920761 -18.412088807260666 9.942527955920761
S 41.050255141001905 50.99093063472749 41.050255141001905 16.376203677077434
s 8.469560851339907 -9.942527955920761 18.412088807260666 -9.942527955920761
S 77.87443275552323 -18.238523280572622 77.87443275552323 16.376203677077434
z" fill="none" stroke="none"></path>
<circle cx="0" cy="0" r="4.37197579028867" fill="#fe0000" opacity="0.9">
  <animateMotion begin="-1.6973026922521666s" dur="5.45s" repeatCount="indefinite">
    <mpath xlink:href="#path57"></mpath>
  </animateMotion>
</circle><path id="path58" d="M 253.11737617469365 96.52993592820836
c 0 23.96332000893827 -5.8633655341019155 6.88308127916312 -12.746446813265035 6.88308127916312
S 227.62448254816357 120.49325593714663 227.62448254816357 96.52993592820836
s 5.8633655341019155 -6.88308127916312 12.746446813265035 -6.88308127916312
S 253.11737617469365 72.56661591927009 253.11737617469365 96.52993592820836
z" fill="none" stroke="none"></path>
<circle cx="0" cy="0" r="3.687836070319621" fill="#830189" opacity="0.9">
  <animateMotion begin="-0.2667972312145875s" dur="5.45s" repeatCount="indefinite">
    <mpath xlink:href="#path58"></mpath>
  </animateMotion>
</circle><path id="path59" d="M 321.6959368548369 132.4354427171586
c 0 32.0900438955461 -7.851819251037876 9.217353033827072 -17.069172284864948 9.217353033827072
S 287.55759228510703 164.5254866127047 287.55759228510703 132.4354427171586
s 7.851819251037876 -9.217353033827072 17.069172284864948 -9.217353033827072
S 321.6959368548369 100.34539882161249 321.6959368548369 132.4354427171586
z" fill="none" stroke="none"></path>
<circle cx="0" cy="0" r="3.5330719810742606" fill="#ffff01" opacity="0.9">
  <animateMotion begin="-2.183790513990407s" dur="5.45s" repeatCount="indefinite">
    <mpath xlink:href="#path59"></mpath>
  </animateMotion>
</circle><path id="path60" d="M 364.8179191580828 199.51155052507622
c 0 24.54693274014496 -6.006164393865256 7.050714723233128 -13.056879117098383 7.050714723233128
S 338.70416092388604 224.05848326522118 338.70416092388604 199.51155052507622
s 6.006164393865256 -7.050714723233128 13.056879117098383 -7.050714723233128
S 364.8179191580828 174.96461778493125 364.8179191580828 199.51155052507622
z" fill="none" stroke="none"></path>
<circle cx="0" cy="0" r="3.8801976504468" fill="#fe0000" opacity="0.9">
  <animateMotion begin="-2.0758081251486074s" dur="5.45s" repeatCount="indefinite">
    <mpath xlink:href="#path60"></mpath>
  </animateMotion>
</circle><path id="path61" d="M 139.94485773539677 71.44510824974545
c 0 22.595222203729342 -5.528618198784838 6.490117015964811 -12.01873521474965 6.490117015964811
S 115.90738730589747 94.04033045347478 115.90738730589747 71.44510824974545
s 5.528618198784838 -6.490117015964811 12.01873521474965 -6.490117015964811
S 139.94485773539677 48.8498860460161 139.94485773539677 71.44510824974545
z" fill="none" stroke="none"></path>
<circle cx="0" cy="0" r="3.3220049391051676" fill="#fe0000" opacity="0.9">
  <animateMotion begin="-5.133548412120036s" dur="5.45s" repeatCount="indefinite">
    <mpath xlink:href="#path61"></mpath>
  </animateMotion>
</circle><path id="path62" d="M 98.5813553972675 363.64545906199726
c 0 28.98787938168614 -7.092778997646609 8.32630577984602 -15.419084777492628 8.32630577984602
S 67.74318584228224 392.6333384436834 67.74318584228224 363.64545906199726
s 7.092778997646609 -8.32630577984602 15.419084777492628 -8.32630577984602
S 98.5813553972675 334.65757968031113 98.5813553972675 363.64545906199726
z" fill="none" stroke="none"></path>
<circle cx="0" cy="0" r="3.6616826885332205" fill="#4600ff" opacity="0.9">
  <animateMotion begin="-2.9503006591225174s" dur="5.45s" repeatCount="indefinite">
    <mpath xlink:href="#path62"></mpath>
  </animateMotion>
</circle><path id="path63" d="M 310.4261195581863 188.4326223094119
c 0 28.927037848553436 -7.077892239539669 8.308830020329179 -15.386722259868847 8.308830020329179
S 279.6526750384486 217.35966015796532 279.6526750384486 188.4326223094119
s 7.077892239539669 -8.308830020329179 15.386722259868847 -8.308830020329179
S 310.4261195581863 159.50558446085847 310.4261195581863 188.4326223094119
z" fill="none" stroke="none"></path>
<circle cx="0" cy="0" r="3.2421102737603857" fill="#fe0000" opacity="0.9">
  <animateMotion begin="-3.919173146123969s" dur="5.45s" repeatCount="indefinite">
    <mpath xlink:href="#path63"></mpath>
  </animateMotion>
</circle><path id="path64" d="M 221.05676557422524 221.67499184941562
c 0 35.44277329964214 -8.672167935018821 10.18037105415253 -18.852538989171354 10.18037105415253
S 183.3516875958825 257.11776514905773 183.3516875958825 221.67499184941562
s 8.672167935018821 -10.18037105415253 18.852538989171354 -10.18037105415253
S 221.05676557422524 186.23221854977348 221.05676557422524 221.67499184941562
z" fill="none" stroke="none"></path>
<circle cx="0" cy="0" r="2.625505161627115" fill="#4600ff" opacity="0.9">
  <animateMotion begin="-3.592959218266461s" dur="5.45s" repeatCount="indefinite">
    <mpath xlink:href="#path64"></mpath>
  </animateMotion>
</circle><path id="path65" d="M 253.35185340785574 226.00457777222718
c 0 24.227812416901557 -5.928081761582296 6.959052502727044 -12.887134264309339 6.959052502727044
S 227.57758487923707 250.23239018912875 227.57758487923707 226.00457777222718
s 5.928081761582296 -6.959052502727044 12.887134264309339 -6.959052502727044
S 253.35185340785574 201.7767653553256 253.35185340785574 226.00457777222718
z" fill="none" stroke="none"></path>
<circle cx="0" cy="0" r="3.684841270784752" fill="#008001" opacity="0.9">
  <animateMotion begin="-0.5354809306300855s" dur="5.45s" repeatCount="indefinite">
    <mpath xlink:href="#path65"></mpath>
  </animateMotion>
</circle><path id="path66" d="M 146.75502996288188 409.00894721899374
c 0 37.20880927979072 -9.10428312165092 10.687636708024995 -19.791919829675916 10.687636708024995
S 107.17119030353004 446.21775649878447 107.17119030353004 409.00894721899374
s 9.10428312165092 -10.687636708024995 19.791919829675916 -10.687636708024995
S 146.75502996288188 371.800137939203 146.75502996288188 409.00894721899374
z" fill="none" stroke="none"></path>
<circle cx="0" cy="0" r="4.104586877934407" fill="#ff6300" opacity="0.9">
  <animateMotion begin="-0.2127533164826069s" dur="5.45s" repeatCount="indefinite">
    <mpath xlink:href="#path66"></mpath>
  </animateMotion>
</circle><path id="path67" d="M 96.7848095789637 340.48906461913225
c 0 36.88431604979274 -9.024885841970562 10.594431205791532 -19.61931704776209 10.594431205791532
S 57.54617548343951 377.373380668925 57.54617548343951 340.48906461913225
s 9.024885841970562 -10.594431205791532 19.61931704776209 -10.594431205791532
S 96.7848095789637 303.6047485693395 96.7848095789637 340.48906461913225
z" fill="none" stroke="none"></path>
<circle cx="0" cy="0" r="3.8976080429615028" fill="#008001" opacity="0.9">
  <animateMotion begin="-2.969993398932038s" dur="5.45s" repeatCount="indefinite">
    <mpath xlink:href="#path67"></mpath>
  </animateMotion>
</circle><path id="path68" d="M 331.9683129983719 267.97293939890454
c 0 33.58904956492358 -8.218597233970662 9.647918492052519 -17.86651572602318 9.647918492052519
S 296.23528154632555 301.5619889638281 296.23528154632555 267.97293939890454
s 8.218597233970662 -9.647918492052519 17.86651572602318 -9.647918492052519
S 331.9683129983719 234.38388983398096 331.9683129983719 267.97293939890454
z" fill="none" stroke="none"></path>
<circle cx="0" cy="0" r="4.230761892351495" fill="#830189" opacity="0.9">
  <animateMotion begin="-2.9712241274374254s" dur="5.45s" repeatCount="indefinite">
    <mpath xlink:href="#path68"></mpath>
  </animateMotion>
</circle><path id="path69" d="M 265.69162067418506 86.66099404372183
c 0 21.060233207776704 -5.153035784881533 6.04921592138267 -11.202251706264203 6.04921592138267
S 243.28711726165668 107.72122725149853 243.28711726165668 86.66099404372183
s 5.153035784881533 -6.04921592138267 11.202251706264203 -6.04921592138267
S 265.69162067418506 65.60076083594512 265.69162067418506 86.66099404372183
z" fill="none" stroke="none"></path>
<circle cx="0" cy="0" r="4.024187099587149" fill="#008001" opacity="0.9">
  <animateMotion begin="-2.0345983935341274s" dur="5.45s" repeatCount="indefinite">
    <mpath xlink:href="#path69"></mpath>
  </animateMotion>
</circle><path id="path70" d="M 28.80494169726218 139.91061967552284
c 0 32.63310328498224 -7.984695484623314 9.373338177601283 -17.358033662224596 9.373338177601283
S -5.911125627187012 172.54372296050508 -5.911125627187012 139.91061967552284
s 7.984695484623314 -9.373338177601283 17.358033662224596 -9.373338177601283
S 28.80494169726218 107.2775163905406 28.80494169726218 139.91061967552284
z" fill="none" stroke="none"></path>
<circle cx="0" cy="0" r="2.6902035384371983" fill="#fe0000" opacity="0.9">
  <animateMotion begin="-3.009590986318308s" dur="5.45s" repeatCount="indefinite">
    <mpath xlink:href="#path70"></mpath>
  </animateMotion>
</circle><path id="path71" d="M 135.68221342791037 221.45312362924346
c 0 24.282430774176206 -5.941445827723965 6.974740754284655 -12.91618658200862 6.974740754284655
S 109.84984026389313 245.73555440341966 109.84984026389313 221.45312362924346
s 5.941445827723965 -6.974740754284655 12.91618658200862 -6.974740754284655
S 135.68221342791037 197.17069285506727 135.68221342791037 221.45312362924346
z" fill="none" stroke="none"></path>
<circle cx="0" cy="0" r="2.9383180135504365" fill="#008001" opacity="0.9">
  <animateMotion begin="-1.8313508051110392s" dur="5.45s" repeatCount="indefinite">
    <mpath xlink:href="#path71"></mpath>
  </animateMotion>
</circle><path id="path72" d="M 18.62513374619035 76.0770057811628
c 0 24.405914662754718 -5.971659970674026 7.010209530791249 -12.981869501465276 7.010209530791249
S -7.338605256740204 100.48292044391752 -7.338605256740204 76.0770057811628
s 5.971659970674026 -7.010209530791249 12.981869501465276 -7.010209530791249
S 18.62513374619035 51.67109111840808 18.62513374619035 76.0770057811628
z" fill="none" stroke="none"></path>
<circle cx="0" cy="0" r="3.046402732224367" fill="#ffff01" opacity="0.9">
  <animateMotion begin="-1.7324698876684177s" dur="5.45s" repeatCount="indefinite">
    <mpath xlink:href="#path72"></mpath>
  </animateMotion>
</circle><path id="path73" d="M 84.90873407979787 75.32586268372201
c 0 26.828514784601104 -6.5644238302747375 7.706062757279041 -14.27048658755378 7.706062757279041
S 56.367760904690314 102.1543774683231 56.367760904690314 75.32586268372201
s 6.5644238302747375 -7.706062757279041 14.27048658755378 -7.706062757279041
S 84.90873407979787 48.4973478991209 84.90873407979787 75.32586268372201
z" fill="none" stroke="none"></path>
<circle cx="0" cy="0" r="2.814360512361472" fill="#830189" opacity="0.9">
  <animateMotion begin="-1.9884472466331413s" dur="5.45s" repeatCount="indefinite">
    <mpath xlink:href="#path73"></mpath>
  </animateMotion>
</circle><path id="path74" d="M 27.4339097376157 374.7574825164599
c 0 24.023341642432687 -5.878051678467572 6.900321535592368 -12.77837321405994 6.900321535592368
S 1.8771633094958204 398.7808241588926 1.8771633094958204 374.7574825164599
s 5.878051678467572 -6.900321535592368 12.77837321405994 -6.900321535592368
S 27.4339097376157 350.7341408740272 27.4339097376157 374.7574825164599
z" fill="none" stroke="none"></path>
<circle cx="0" cy="0" r="3.491805940134971" fill="#ff6300" opacity="0.9">
  <animateMotion begin="-2.3345805665593553s" dur="5.45s" repeatCount="indefinite">
    <mpath xlink:href="#path74"></mpath>
  </animateMotion>
</circle><path id="path75" d="M 318.6790543789796 242.88689521289638
c 0 20.29734535474681 -4.966371735735921 5.830088559342169 -10.79646029507809 5.830088559342169
S 297.0861337888234 263.1842405676432 297.0861337888234 242.88689521289638
s 4.966371735735921 -5.830088559342169 10.79646029507809 -5.830088559342169
S 318.6790543789796 222.58954985814955 318.6790543789796 242.88689521289638
z" fill="none" stroke="none"></path>
<circle cx="0" cy="0" r="4.307759884692775" fill="#fe0000" opacity="0.9">
  <animateMotion begin="-2.0951485260682636s" dur="5.45s" repeatCount="indefinite">
    <mpath xlink:href="#path75"></mpath>
  </animateMotion>
</circle><path id="path76" d="M 117.50437938228454 198.8146504724001
c 0 33.77011712599114 -8.262900998912725 9.699927259593201 -17.962828258505926 9.699927259593201
S 81.5787228652727 232.58476759839124 81.5787228652727 198.8146504724001
s 8.262900998912725 -9.699927259593201 17.962828258505926 -9.699927259593201
S 117.50437938228454 165.04453334640897 117.50437938228454 198.8146504724001
z" fill="none" stroke="none"></path>
<circle cx="0" cy="0" r="2.6290079612355277" fill="#830189" opacity="0.9">
  <animateMotion begin="-1.4789063782633916s" dur="5.45s" repeatCount="indefinite">
    <mpath xlink:href="#path76"></mpath>
  </animateMotion>
</circle><path id="path77" d="M 229.29016029320445 66.57626061257587
c 0 36.383989448298514 -8.902465503307083 10.450720373447446 -19.35318587675453 10.450720373447446
S 190.58378853969538 102.96025006087439 190.58378853969538 66.57626061257587
s 8.902465503307083 -10.450720373447446 19.35318587675453 -10.450720373447446
S 229.29016029320445 30.19227116427735 229.29016029320445 66.57626061257587
z" fill="none" stroke="none"></path>
<circle cx="0" cy="0" r="3.6490165201441913" fill="#008001" opacity="0.9">
  <animateMotion begin="-3.0192675280845513s" dur="5.45s" repeatCount="indefinite">
    <mpath xlink:href="#path77"></mpath>
  </animateMotion>
</circle><path id="path78" d="M 151.6306053289837 52.054556193940144
c 0 29.858976906246443 -7.305919881315618 8.576514643283554 -15.882434524599171 8.576514643283554
S 119.86573627978535 81.91353310018658 119.86573627978535 52.054556193940144
s 7.305919881315618 -8.576514643283554 15.882434524599171 -8.576514643283554
S 151.6306053289837 22.1955792876937 151.6306053289837 52.054556193940144
z" fill="none" stroke="none"></path>
<circle cx="0" cy="0" r="2.498864854558199" fill="#ffff01" opacity="0.9">
  <animateMotion begin="-2.5731563686637067s" dur="5.45s" repeatCount="indefinite">
    <mpath xlink:href="#path78"></mpath>
  </animateMotion>
</circle><path id="path79" d="M 292.07406290405703 297.3546771480985
c 0 26.91485670291426 -6.585550044330084 7.730863095517926 -14.31641313984801 7.730863095517926
S 263.441236624361 324.2695338510128 263.441236624361 297.3546771480985
s 6.585550044330084 -7.730863095517926 14.31641313984801 -7.730863095517926
S 292.07406290405703 270.43982044518424 292.07406290405703 297.3546771480985
z" fill="none" stroke="none"></path>
<circle cx="0" cy="0" r="2.7951587118782886" fill="#fe0000" opacity="0.9">
  <animateMotion begin="-3.03490612697864s" dur="5.45s" repeatCount="indefinite">
    <mpath xlink:href="#path79"></mpath>
  </animateMotion>
</circle><path id="path80" d="M 385.4960974238315 249.36262712564783
c 0 34.89877416389709 -8.539061763506734 10.024115983247036 -18.56317774675377 10.024115983247036
S 348.369741930324 284.2614012895449 348.369741930324 249.36262712564783
s 8.539061763506734 -10.024115983247036 18.56317774675377 -10.024115983247036
S 385.4960974238315 214.46385296175075 385.4960974238315 249.36262712564783
z" fill="none" stroke="none"></path>
<circle cx="0" cy="0" r="2.5940170251112202" fill="#4600ff" opacity="0.9">
  <animateMotion begin="-1.3781023448432967s" dur="5.45s" repeatCount="indefinite">
    <mpath xlink:href="#path80"></mpath>
  </animateMotion>
</circle><path id="path81" d="M 154.32329241251955 31.722488105410186
c 0 29.730373931165015 -7.274453195923353 8.539575490866547 -15.8140286867899 8.539575490866547
S 122.69523503893976 61.4528620365752 122.69523503893976 31.722488105410186
s 7.274453195923353 -8.539575490866547 15.8140286867899 -8.539575490866547
S 154.32329241251955 1.9921141742451702 154.32329241251955 31.722488105410186
z" fill="none" stroke="none"></path>
<circle cx="0" cy="0" r="4.292583848869817" fill="#4600ff" opacity="0.9">
  <animateMotion begin="-5.3531076671137345s" dur="5.45s" repeatCount="indefinite">
    <mpath xlink:href="#path81"></mpath>
  </animateMotion>
</circle><path id="path82" d="M 329.2566823372602 175.82786481525716
c 0 22.199780428489067 -5.431861168672856 6.376532676268136 -11.808393844940992 6.376532676268136
S 305.6398946473782 198.02764524374624 305.6398946473782 175.82786481525716
s 5.431861168672856 -6.376532676268136 11.808393844940992 -6.376532676268136
S 329.2566823372602 153.62808438676808 329.2566823372602 175.82786481525716
z" fill="none" stroke="none"></path>
<circle cx="0" cy="0" r="2.4708351563605175" fill="#008001" opacity="0.9">
  <animateMotion begin="-1.244989129219344s" dur="5.45s" repeatCount="indefinite">
    <mpath xlink:href="#path82"></mpath>
  </animateMotion>
</circle><path id="path83" d="M 313.1135385777952 412.87740975213205
c 0 36.66568257193124 -8.971390416536368 10.531632228107911 -19.50302264464428 10.531632228107911
S 274.1074932885067 449.5430923240633 274.1074932885067 412.87740975213205
s 8.971390416536368 -10.531632228107911 19.50302264464428 -10.531632228107911
S 313.1135385777952 376.2117271802008 313.1135385777952 412.87740975213205
z" fill="none" stroke="none"></path>
<circle cx="0" cy="0" r="3.1147358516634585" fill="#fe0000" opacity="0.9">
  <animateMotion begin="-5.4131252246611234s" dur="5.45s" repeatCount="indefinite">
    <mpath xlink:href="#path83"></mpath>
  </animateMotion>
</circle><path id="path84" d="M 117.48683056219949 222.34659278410234
c 0 33.59712834666113 -8.220573957161765 9.6502389931899 -17.870812950351663 9.6502389931899
S 81.74520466149616 255.94372113076346 81.74520466149616 222.34659278410234
s 8.220573957161765 -9.6502389931899 17.870812950351663 -9.6502389931899
S 117.48683056219949 188.74946443744122 117.48683056219949 222.34659278410234
z" fill="none" stroke="none"></path>
<circle cx="0" cy="0" r="3.435163378385474" fill="#4600ff" opacity="0.9">
  <animateMotion begin="-0.08822623955198013s" dur="5.45s" repeatCount="indefinite">
    <mpath xlink:href="#path84"></mpath>
  </animateMotion>
</circle><path id="path85" d="M 157.8360995391562 82.84032715729047
c 0 21.970237105337027 -5.375696313007996 6.310600019618082 -11.686296332626078 6.310600019618082
S 134.46350687390404 104.81056426262751 134.46350687390404 82.84032715729047
s 5.375696313007996 -6.310600019618082 11.686296332626078 -6.310600019618082
S 157.8360995391562 60.87009005195345 157.8360995391562 82.84032715729047
z" fill="none" stroke="none"></path>
<circle cx="0" cy="0" r="2.78958704088116" fill="#ff6300" opacity="0.9">
  <animateMotion begin="-3.2684921803369056s" dur="5.45s" repeatCount="indefinite">
    <mpath xlink:href="#path85"></mpath>
  </animateMotion>
</circle><path id="path86" d="M 246.43862051015077 279.3377074634196
c 0 31.97889697691412 -7.824623728393879 9.185427855071076 -17.010051583464957 9.185427855071076
S 212.41851734322086 311.3166044403337 212.41851734322086 279.3377074634196
s 7.824623728393879 -9.185427855071076 17.010051583464957 -9.185427855071076
S 246.43862051015077 247.35881048650546 246.43862051015077 279.3377074634196
z" fill="none" stroke="none"></path>
<circle cx="0" cy="0" r="4.40224677363423" fill="#fe0000" opacity="0.9">
  <animateMotion begin="-4.684691744366828s" dur="5.45s" repeatCount="indefinite">
    <mpath xlink:href="#path86"></mpath>
  </animateMotion>
</circle><path id="path87" d="M 185.5948824006238 186.86408904563953
c 0 27.62222228221439 -6.758628856286499 7.934042570423283 -14.692671426709783 7.934042570423283
S 156.20953954720423 214.4863113278539 156.20953954720423 186.86408904563953
s 6.758628856286499 -7.934042570423283 14.692671426709783 -7.934042570423283
S 185.5948824006238 159.24186676342515 185.5948824006238 186.86408904563953
z" fill="none" stroke="none"></path>
<circle cx="0" cy="0" r="4.3319355432437305" fill="#830189" opacity="0.9">
  <animateMotion begin="-2.785491848481174s" dur="5.45s" repeatCount="indefinite">
    <mpath xlink:href="#path87"></mpath>
  </animateMotion>
</circle><path id="path88" d="M 337.2872107872714 213.892756302954
c 0 22.261240645166296 -5.446899306796008 6.394186142760533 -11.841085449556541 6.394186142760533
S 313.60503988815833 236.15399694812032 313.60503988815833 213.892756302954
s 5.446899306796008 -6.394186142760533 11.841085449556541 -6.394186142760533
S 337.2872107872714 191.6315156577877 337.2872107872714 213.892756302954
z" fill="none" stroke="none"></path>
<circle cx="0" cy="0" r="3.1164294132769674" fill="#fe0000" opacity="0.9">
  <animateMotion begin="-1.8839778028937735s" dur="5.45s" repeatCount="indefinite">
    <mpath xlink:href="#path88"></mpath>
  </animateMotion>
</circle><path id="path89" d="M 74.3322878463494 166.81043825724402
c 0 36.51096617812832 -8.93353427762714 10.487192412866644 -19.420726690493787 10.487192412866644
S 35.49083446536183 203.32140443537233 35.49083446536183 166.81043825724402
s 8.93353427762714 -10.487192412866644 19.420726690493787 -10.487192412866644
S 74.3322878463494 130.2994720791157 74.3322878463494 166.81043825724402
z" fill="none" stroke="none"></path>
<circle cx="0" cy="0" r="2.3358084848234095" fill="#4600ff" opacity="0.9">
  <animateMotion begin="-2.1879924600135614s" dur="5.45s" repeatCount="indefinite">
    <mpath xlink:href="#path89"></mpath>
  </animateMotion>
</circle><path id="path90" d="M 108.27728405992303 101.0443335768622
c 0 19.771360982720008 -4.837673431942129 5.679007941845109 -10.516681373787238 5.679007941845109
S 87.24392131234856 120.81569455958221 87.24392131234856 101.0443335768622
s 4.837673431942129 -5.679007941845109 10.516681373787238 -5.679007941845109
S 108.27728405992303 81.27297259414219 108.27728405992303 101.0443335768622
z" fill="none" stroke="none"></path>
<circle cx="0" cy="0" r="3.4576900183538317" fill="#ffff01" opacity="0.9">
  <animateMotion begin="-3.5125573710516043s" dur="5.45s" repeatCount="indefinite">
    <mpath xlink:href="#path90"></mpath>
  </animateMotion>
</circle><path id="path91" d="M 200.0269590786977 16.581521697053
c 0 33.11458070891767 -8.102503790479854 9.511634884476353 -17.61413867495621 9.511634884476353
S 164.79868172878525 49.69610240597067 164.79868172878525 16.581521697053
s 8.102503790479854 -9.511634884476353 17.61413867495621 -9.511634884476353
S 200.0269590786977 -16.533059011864673 200.0269590786977 16.581521697053
z" fill="none" stroke="none"></path>
<circle cx="0" cy="0" r="2.686290621904867" fill="#830189" opacity="0.9">
  <animateMotion begin="-2.282246888981047s" dur="5.45s" repeatCount="indefinite">
    <mpath xlink:href="#path91"></mpath>
  </animateMotion>
</circle><path id="path92" d="M 387.412148990821 195.98801469333327
c 0 36.45774218891144 -8.920511386648542 10.471904671283074 -19.392416057931616 10.471904671283074
S 348.6273168749578 232.44575688224472 348.6273168749578 195.98801469333327
s 8.920511386648542 -10.471904671283074 19.392416057931616 -10.471904671283074
S 387.412148990821 159.53027250442182 387.412148990821 195.98801469333327
z" fill="none" stroke="none"></path>
<circle cx="0" cy="0" r="3.3720794445943247" fill="#ffff01" opacity="0.9">
  <animateMotion begin="-0.2507758623320273s" dur="5.45s" repeatCount="indefinite">
    <mpath xlink:href="#path92"></mpath>
  </animateMotion>
</circle><path id="path93" d="M 439.51964255272156 244.8640439026739
c 0 24.971430437600336 -6.110030851753272 7.1726449129277565 -13.282675764681029 7.1726449129277565
S 412.95429102335953 269.83547434027423 412.95429102335953 244.8640439026739
s 6.110030851753272 -7.1726449129277565 13.282675764681029 -7.1726449129277565
S 439.51964255272156 219.89261346507357 439.51964255272156 244.8640439026739
z" fill="none" stroke="none"></path>
<circle cx="0" cy="0" r="4.195667834820737" fill="#ffff01" opacity="0.9">
  <animateMotion begin="-0.8266386119965619s" dur="5.45s" repeatCount="indefinite">
    <mpath xlink:href="#path93"></mpath>
  </animateMotion>
</circle><path id="path94" d="M 260.05312480058103 146.05389758827474
c 0 23.869250484037316 -5.840348522689982 6.856061309244762 -12.696409831934742 6.856061309244762
S 234.66030513671157 169.92314807231205 234.66030513671157 146.05389758827474
s 5.840348522689982 -6.856061309244762 12.696409831934742 -6.856061309244762
S 260.05312480058103 122.18464710423743 260.05312480058103 146.05389758827474
z" fill="none" stroke="none"></path>
<circle cx="0" cy="0" r="2.3492197826554726" fill="#4600ff" opacity="0.9">
  <animateMotion begin="-2.661958355726697s" dur="5.45s" repeatCount="indefinite">
    <mpath xlink:href="#path94"></mpath>
  </animateMotion>
</circle><path id="path95" d="M 23.379185365788647 144.69949073522022
c 0 35.860680751260716 -8.77442188594677 10.300408300894036 -19.074830186840806 10.300408300894036
S -14.770475007892966 180.56017148648095 -14.770475007892966 144.69949073522022
s 8.77442188594677 -10.300408300894036 19.074830186840806 -10.300408300894036
S 23.379185365788647 108.83880998395951 23.379185365788647 144.69949073522022
z" fill="none" stroke="none"></path>
<circle cx="0" cy="0" r="4.08054788911529" fill="#4600ff" opacity="0.9">
  <animateMotion begin="-2.1221138609903116s" dur="5.45s" repeatCount="indefinite">
    <mpath xlink:href="#path95"></mpath>
  </animateMotion>
</circle><path id="path96" d="M 467.1812162811254 206.60221089799424
c 0 34.27848885588531 -8.387289826440021 9.84594892669046 -18.23323875313048 9.84594892669046
S 430.71473877486443 240.88069975387955 430.71473877486443 206.60221089799424
s 8.387289826440021 -9.84594892669046 18.23323875313048 -9.84594892669046
S 467.1812162811254 172.32372204210893 467.1812162811254 206.60221089799424
z" fill="none" stroke="none"></path>
<circle cx="0" cy="0" r="3.3318414714035884" fill="#ffff01" opacity="0.9">
  <animateMotion begin="-2.73201667265781s" dur="5.45s" repeatCount="indefinite">
    <mpath xlink:href="#path96"></mpath>
  </animateMotion>
</circle><path id="path97" d="M 46.10751122635455 284.8334793122572
c 0 27.570545060158643 -6.7459844296132845 7.919199113024292 -14.665183542637577 7.919199113024292
S 16.777144141079404 312.40402437241585 16.777144141079404 284.8334793122572
s 6.7459844296132845 -7.919199113024292 14.665183542637577 -7.919199113024292
S 46.10751122635455 257.2629342520986 46.10751122635455 284.8334793122572
z" fill="none" stroke="none"></path>
<circle cx="0" cy="0" r="2.9081746528170207" fill="#fe0000" opacity="0.9">
  <animateMotion begin="-4.231800463292679s" dur="5.45s" repeatCount="indefinite">
    <mpath xlink:href="#path97"></mpath>
  </animateMotion>
</circle><path id="path98" d="M 211.34537767679643 321.31303636682185
c 0 28.009011074579785 -6.853268667184414 8.045141478868661 -14.898410146053076 8.045141478868661
S 181.5485573846903 349.32204744140165 181.5485573846903 321.31303636682185
s 6.853268667184414 -8.045141478868661 14.898410146053076 -8.045141478868661
S 211.34537767679643 293.30402529224204 211.34537767679643 321.31303636682185
z" fill="none" stroke="none"></path>
<circle cx="0" cy="0" r="3.428558577601269" fill="#fe0000" opacity="0.9">
  <animateMotion begin="-1.150761860799499s" dur="5.45s" repeatCount="indefinite">
    <mpath xlink:href="#path98"></mpath>
  </animateMotion>
</circle><path id="path99" d="M 36.799887024273126 390.43939191288916
c 0 33.76030765441367 -8.260500809058664 9.697109645416694 -17.957610454475358 9.697109645416694
S 0.8846661153224105 424.19969956730284 0.8846661153224105 390.43939191288916
s 8.260500809058664 -9.697109645416694 17.957610454475358 -9.697109645416694
S 36.799887024273126 356.6790842584755 36.799887024273126 390.43939191288916
z" fill="none" stroke="none"></path>
<circle cx="0" cy="0" r="4.088521418027647" fill="#008001" opacity="0.9">
  <animateMotion begin="-0.40153607643094924s" dur="5.45s" repeatCount="indefinite">
    <mpath xlink:href="#path99"></mpath>
  </animateMotion>
</circle></g>
</svg>