<?xml version="1.0" encoding="iso-8859-1"?>
<!-- Generator: Adobe Illustrator 19.0.0, SVG Export Plug-In . SVG Version: 6.00 Build 0)  -->
<svg xmlns="http://www.w3.org/2000/svg" xmlns:xlink="http://www.w3.org/1999/xlink" version="1.1" id="Capa_1" x="0px" y="0px" viewBox="0 0 512 512" style="enable-background:new 0 0 512 512;" xml:space="preserve" width="512px" height="512px">
<g>
	<g>
		<rect x="241" y="60" width="30" height="30" fill="#FFFFFF"/>
	</g>
</g>
<g>
	<g>
		<path d="M194.516,342.243C204.72,331.482,211,316.965,211,301c0-33.084-26.916-60-60-60s-60,26.916-60,60    c0,15.965,6.28,30.482,16.484,41.243C79.79,357.606,61,387.148,61,421v30h180v-30C241,387.148,222.21,357.606,194.516,342.243z     M151,271c16.542,0,30,13.458,30,30s-13.458,30-30,30s-30-13.458-30-30S134.458,271,151,271z M91,421c0-33.084,26.916-60,60-60    s60,26.916,60,60H91z" fill="#FFFFFF"/>
	</g>
</g>
<g>
	<g>
		<rect x="271" y="271" width="181" height="30" fill="#FFFFFF"/>
	</g>
</g>
<g>
	<g>
		<rect x="271" y="331" width="181" height="30" fill="#FFFFFF"/>
	</g>
</g>
<g>
	<g>
		<rect x="271" y="391" width="60" height="30" fill="#FFFFFF"/>
	</g>
</g>
<g>
	<g>
		<rect x="361" y="391" width="91" height="30" fill="#FFFFFF"/>
	</g>
</g>
<g>
	<g>
		<path d="M331,90V75c0-41.355-33.645-75-75-75c-41.355,0-75,33.645-75,75v15H0c0,35.883,0,401.599,0,422h512    c0-95.759,0-382.293,0-422H331z M211,75c0-24.813,20.187-45,45-45s45,20.187,45,45v45h-90V75z M482,482H30V210h452V482z M482,180    H30v-60h151v30h150v-30h151V180z" fill="#FFFFFF"/>
	</g>
</g>
<g>
</g>
<g>
</g>
<g>
</g>
<g>
</g>
<g>
</g>
<g>
</g>
<g>
</g>
<g>
</g>
<g>
</g>
<g>
</g>
<g>
</g>
<g>
</g>
<g>
</g>
<g>
</g>
<g>
</g>
</svg>
