<svg xmlns="http://www.w3.org/2000/svg" xmlns:xlink="http://www.w3.org/1999/xlink" version="1.1" x="0px" y="0px" viewBox="0 0 70 87.5" style="enable-background:new 0 0 70 70;" xml:space="preserve"><g><path d="M65.28992,29.77796c-1.72998-1.20996-2.33997-3.48999-1.45007-5.40997c0.88013-1.91003,0.79004-4.04999-0.2699-5.87   c-1.05005-1.82001-2.84998-2.97003-4.94006-3.16004c-2.10999-0.17999-3.78003-1.84998-3.96997-3.95996   C54.46997,9.27796,53.31995,7.47798,51.5,6.42799c-1.82007-1.04999-3.96008-1.15002-5.87012-0.26001   c-1.91992,0.88-4.18994,0.27002-5.41992-1.47003C39,2.98799,37.09985,1.99799,35,1.99799c-2.1001,0-4,0.98999-5.22009,2.71997   c-1.20996,1.72003-3.48999,2.33002-5.41003,1.44C22.45996,5.27796,20.31995,5.378,18.5,6.42799   c-1.82007,1.04999-2.97009,2.85998-3.16016,4.95001c-0.18994,2.10999-1.84985,3.76996-3.95996,3.95996   c-2.09998,0.19-3.8999,1.34003-4.94995,3.16004s-1.15002,3.95996-0.26001,5.87c0.88,1.91998,0.27002,4.20001-1.46997,5.41998   C2.98999,30.998,2,32.89796,2,34.99799c0,2.09998,0.98999,4,2.71997,5.21997c1.71997,1.22003,2.32996,3.48999,1.43994,5.41998   c-0.88,1.90002-0.78003,4.04004,0.27002,5.86005s2.84998,2.96997,4.94995,3.15997c2.11011,0.19,3.77002,1.85999,3.95996,3.97003   c0.39746,4.37079,4.98364,7.0744,9.03003,5.20996c1.92004-0.89001,4.19006-0.27997,5.42004,1.46002   c2.52734,3.59229,7.86902,3.62177,10.43005-0.01001c1.21997-1.72998,3.48999-2.34003,5.41992-1.45001   c4.02344,1.86346,8.62207-0.83124,9.02002-5.20996c0.18994-2.11005,1.85999-3.78003,3.96997-3.97003   c2.09009-0.19,3.89001-1.33997,4.94995-3.15997c1.05005-1.82001,1.14014-3.95001,0.26001-5.87   c-0.88989-1.92004-0.27991-4.19,1.44006-5.40002l0.01001-0.01001c0.01001,0,0.01001-0.01001,0.01001-0.01001   C67.0199,38.99799,68,37.09797,68,34.99799C68,32.89796,67.0199,30.998,65.28992,29.77796z M60.03027,39.41975H60.0293   c-1.37207,0.96924-1.84863,2.74756-1.15625,4.24561c0.75293,1.62744,0.66992,3.44531-0.22461,4.99219   c-0.89355,1.54639-2.42676,2.52539-4.20605,2.68506c-1.64844,0.14795-2.95117,1.45166-3.09961,3.09912   c-0.16016,1.77979-1.13867,3.31299-2.68555,4.20703c-1.54785,0.89355-3.36523,0.97656-4.98633,0.22656   c-1.50293-0.69629-3.28125-0.21973-4.2334,1.13037c-1.03711,1.47021-2.65137,2.30664-4.43652,2.30664   c-1.78418,0-3.39844-0.83643-4.42773-2.29492c-0.95898-1.36182-2.74023-1.8374-4.23633-1.14453   c-1.62988,0.75342-3.44531,0.66992-4.99219-0.22412s-2.52539-2.42725-2.68555-4.20703   c-0.14844-1.64844-1.45117-2.95215-3.09863-3.09961c-1.78027-0.16016-3.31348-1.13965-4.20801-2.68652   c-0.89355-1.54736-0.97559-3.36426-0.22559-4.98584c0.69434-1.50293,0.21875-3.28125-1.12988-4.23242   c-1.4707-1.0376-2.30762-2.65186-2.30762-4.43652c0-1.78516,0.83691-3.39941,2.2959-4.42822   c1.36133-0.96045,1.83691-2.73877,1.14453-4.23682c-0.75293-1.62695-0.6709-3.44434,0.22363-4.99121   c0.89355-1.54688,2.42676-2.52588,4.20605-2.68604c1.64844-0.14795,2.95215-1.45117,3.10059-3.09912   c0.16016-1.77979,1.13867-3.31299,2.68555-4.20703c1.54785-0.89355,3.36426-0.97607,4.98633-0.22656   c1.50098,0.69482,3.28125,0.21924,4.23242-1.12939c1.03809-1.47119,2.65234-2.30762,4.43652-2.30762   c1.78516,0,3.39941,0.83643,4.42871,2.29492c0.95996,1.3623,2.73926,1.83691,4.23633,1.14453   c1.62793-0.75293,3.44434-0.67041,4.99219,0.22461c1.54688,0.89404,2.52539,2.42725,2.68555,4.20703   c0.14746,1.64795,1.45117,2.95166,3.09961,3.09961c1.7793,0.16016,3.3125,1.13916,4.20605,2.68604   c0.89453,1.54688,0.97656,3.36426,0.22656,4.98584c-0.00488,0.01074-0.00977,0.02197-0.01563,0.03271   c-0.67383,1.49219-0.19531,3.25439,1.14551,4.20068c1.4707,1.03662,2.30762,2.65088,2.30762,4.43603   C62.31348,36.78059,61.48145,38.39045,60.03027,39.41975z"/><path d="M58.86987,32.20795c-2.15991-1.51996-2.90991-4.33996-1.80994-6.70996c0-0.01001,0.01001-0.02002,0.01001-0.03003   c0.45996-1.02002,0.41003-2.14996-0.15002-3.12c-0.57007-0.97998-1.53003-1.59998-2.65991-1.70001   c-2.61011-0.22998-4.67017-2.29999-4.91016-4.90997c-0.09985-1.12-0.71997-2.09003-1.68994-2.65002   c-0.97998-0.57001-2.13-0.62-3.1499-0.14996c-2.38013,1.10999-5.20007,0.34998-6.71008-1.79004   C37.1499,10.21797,36.12988,9.688,35,9.688c-1.12012,0-2.14014,0.52997-2.79004,1.44995   c-1.52002,2.15002-4.34009,2.90002-6.70996,1.81c-1.03003-0.47998-2.18005-0.42999-3.15015,0.14001   c-0.97998,0.56-1.59985,1.53003-1.69995,2.65002c-0.22998,2.60999-2.30005,4.67999-4.90991,4.90997   c-1.12012,0.10004-2.09009,0.72003-2.65015,1.70001c-0.56995,0.97003-0.61987,2.12-0.1499,3.14001   c1.09998,2.38,0.34998,5.20001-1.79004,6.70996c-0.92993,0.66003-1.45996,1.68005-1.45996,2.80005   c0,1.13,0.53003,2.14996,1.44995,2.79999c2.15002,1.51001,2.90002,4.33002,1.80005,6.71002   c-0.46997,1.01996-0.42004,2.16998,0.1499,3.14996c0.56006,0.97003,1.53003,1.59003,2.65015,1.69   c2.60986,0.23999,4.67993,2.29999,4.90991,4.91003c0.1001,1.12994,0.71997,2.08997,1.69995,2.65997   c0.97009,0.56,2.12012,0.62,3.14014,0.14001c0.73999-0.34003,1.51001-0.5,2.27991-0.5c1.72009,0,3.39001,0.82001,4.43005,2.28998   c0.65991,0.94,1.67993,1.46002,2.80005,1.46002c1.12988,0,2.1499-0.52002,2.79993-1.44   c1.51001-2.15002,4.32996-2.91003,6.71008-1.81c1.0199,0.47998,2.16992,0.41998,3.1499-0.14001   c0.96997-0.57001,1.59009-1.53003,1.68994-2.65002c0.23999-2.62,2.30005-4.67999,4.91016-4.91998   c1.12988-0.09998,2.08984-0.71997,2.65991-1.69c0.56006-0.97998,0.60999-2.12,0.14001-3.14996   c-1.09998-2.38-0.34998-5.20001,1.78992-6.70001l0.02002-0.01001c0.92004-0.65002,1.44006-1.66998,1.44006-2.79999   C60.30994,33.878,59.78992,32.85798,58.86987,32.20795z M18.68994,47.52796V31.29798H26c0.12622,0,0.24304,0.03149,0.35938,0.06274   V47.4762C26.24402,47.5066,26.125,47.52796,26,47.52796H18.68994z M49.97998,32.55799h-1.81006   c-0.03003,0-0.04004,0.01996-0.07007,0.01996c1.42004,0.04004,2.47998,1.11005,2.47998,2.47003   c0,1.28531-1.02127,2.44-2.41992,2.44h-1.22998c1.37,0,2.43994,1.10999,2.43994,2.44c0,1.28743-1.03821,2.42999-2.43994,2.42999   h-1.51001c1,0.29999,1.76001,1.21002,1.76001,2.32001c0,1.34807-1.00124,2.45001-2.42993,2.45001L30.5,47.21796   c-0.70007,0-1.36011-0.20001-1.93005-0.64996c-0.05823-0.04578-0.10535-0.10229-0.15979-0.15192V30.88593   c1.03201-1.98652,5.96885-6.41727,5.02979-14.34796c0,0,0.70996-0.39001,1.62-0.39001c2.4974,0,5.21453,3.35989,3.51001,8.90002   c-0.28003,0.84998-0.51001,1.77002-0.42004,2.65997h11.83008c1.42484,0,2.41992,1.18443,2.41992,2.42004   C52.3999,31.47798,51.30994,32.55799,49.97998,32.55799z"/></g><text x="0" y="85" fill="#000000" font-size="5px" font-weight="bold" font-family="'Helvetica Neue', Helvetica, Arial-Unicode, Arial, Sans-serif">Created by Vectors Point</text><text x="0" y="90" fill="#000000" font-size="5px" font-weight="bold" font-family="'Helvetica Neue', Helvetica, Arial-Unicode, Arial, Sans-serif">from the Noun Project</text></svg>